{"glyphs":{"0":{"ha":980,"x_min":-37,"x_max":1018,"o":"m 249 488 q 427 149 181 149 q 734 488 666 149 q 562 821 800 821 q 249 488 315 821 m 62 484 q 593 977 160 977 q 920 484 1018 977 q 396 -7 821 -7 q 62 484 -37 -7 z "},"1":{"ha":468,"x_min":73,"x_max":451,"o":"m 73 0 l 237 821 l 136 821 l 151 895 l 451 990 l 253 0 l 73 0 z "},"2":{"ha":800,"x_min":-28,"x_max":831,"o":"m -28 0 l -1 136 q 595 692 551 473 q 444 821 621 821 q 148 746 295 821 l 180 909 q 475 977 326 977 q 774 692 831 977 q 279 156 724 441 l 667 156 l 636 0 l -28 0 z "},"3":{"ha":756,"x_min":-22,"x_max":814,"o":"m 159 936 q 452 977 302 977 q 762 712 814 977 q 590 492 730 552 q 673 271 706 434 q 255 -7 618 -7 q -22 34 106 -7 l 11 197 q 286 149 137 149 q 494 271 469 149 q 392 414 522 414 l 156 414 l 187 570 l 421 570 q 582 712 553 570 q 420 821 604 821 q 126 773 271 821 l 159 936 z "},"4":{"ha":827,"x_min":-14,"x_max":766,"o":"m 614 0 l 434 0 l 476 210 l -14 210 l 14 346 l 535 970 l 728 970 l 220 353 l 505 353 l 570 677 l 749 677 l 684 353 l 766 260 l 756 210 l 656 210 l 614 0 z "},"5":{"ha":787,"x_min":-5,"x_max":795,"o":"m 216 970 l 795 970 l 767 827 l 342 827 l 279 589 q 394 604 320 604 q 701 305 760 604 q 258 -7 638 -7 q -5 34 123 -7 l 25 183 q 294 136 151 136 q 521 305 487 136 q 366 461 552 461 q 74 427 213 461 l 216 970 z "},"6":{"ha":848,"x_min":-30,"x_max":842,"o":"m 46 373 q 638 999 121 750 l 695 859 q 314 595 435 749 q 487 624 402 624 q 783 326 842 624 q 334 -7 716 -7 q 46 373 -30 -7 m 220 377 q 369 136 172 136 q 606 326 568 136 q 452 481 637 481 q 246 449 348 481 q 220 377 229 422 z "},"7":{"ha":793,"x_min":31,"x_max":857,"o":"m 165 970 l 857 970 l 829 827 l 228 0 l 31 0 l 635 814 l 134 814 l 165 970 z "},"8":{"ha":868,"x_min":-43,"x_max":886,"o":"m 16 288 q 204 512 45 439 q 132 731 100 576 q 534 979 181 979 q 837 731 886 979 q 673 512 806 576 q 775 288 805 439 q 343 -7 716 -7 q 16 288 -43 -7 m 458 583 q 653 711 627 583 q 503 821 675 821 q 307 711 329 821 q 458 583 281 583 m 378 149 q 595 283 568 149 q 425 427 623 427 q 195 283 223 427 q 378 149 168 149 z "},"9":{"ha":858,"x_min":41,"x_max":913,"o":"m 838 599 q 245 -27 762 222 l 189 113 q 571 384 442 222 q 397 348 481 348 q 102 653 41 348 q 549 979 168 979 q 838 599 913 979 m 664 595 q 515 836 712 836 q 279 653 316 836 q 431 490 247 490 q 637 523 536 490 q 664 595 655 550 z "}," ":{"ha":305,"x_min":0,"x_max":0,"o":""},"!":{"ha":383,"x_min":5,"x_max":379,"o":"m 379 970 l 235 251 l 56 251 l 199 970 l 379 970 m 218 166 l 185 0 l 5 0 l 39 166 l 218 166 z "},"\"":{"ha":553,"x_min":127,"x_max":583,"o":"m 583 970 l 503 675 l 378 675 l 416 970 l 583 970 m 332 970 l 252 675 l 127 675 l 165 970 l 332 970 z "},"#":{"ha":1284,"x_min":18,"x_max":1259,"o":"m 567 594 l 455 338 l 711 338 l 823 594 l 567 594 m 176 -3 l 284 233 l 18 233 l 60 338 l 332 338 l 444 594 l 172 594 l 213 699 l 492 699 l 614 966 l 736 966 l 614 699 l 871 699 l 994 970 l 1116 970 l 994 699 l 1259 699 l 1218 594 l 945 594 l 834 338 l 1106 338 l 1065 233 l 785 233 l 677 -3 l 555 -3 l 663 233 l 407 233 l 298 -3 l 176 -3 z "},"$":{"ha":695,"x_min":20,"x_max":684,"o":"m 341 835 l 368 970 l 541 970 l 515 838 q 684 800 606 829 l 654 651 q 406 699 545 699 q 245 624 260 699 q 317 556 232 556 l 432 556 q 626 339 669 556 q 372 121 589 152 l 347 0 l 174 0 l 198 119 q 20 156 99 127 l 50 305 q 314 258 159 258 q 445 332 430 258 q 380 400 458 400 l 252 400 q 78 617 35 400 q 341 835 115 804 z "},"%":{"ha":1019,"x_min":-28,"x_max":1035,"o":"m 151 0 l -28 0 l 855 970 l 1035 970 l 151 0 m 255 774 q 329 675 235 675 q 439 774 420 675 q 366 859 456 859 q 255 774 272 859 m 126 773 q 389 977 167 977 q 568 773 609 977 q 305 557 525 557 q 126 773 83 557 m 582 204 q 657 111 564 111 q 766 204 748 111 q 694 295 785 295 q 582 204 600 295 m 453 203 q 718 413 495 413 q 895 203 937 413 q 633 -7 853 -7 q 453 203 411 -7 z "},"&":{"ha":905,"x_min":-29,"x_max":922,"o":"m 112 702 q 511 970 165 970 q 749 936 637 970 l 720 793 q 492 827 608 827 q 292 705 317 827 q 403 563 264 563 l 632 563 l 651 659 l 748 659 l 798 563 l 922 563 l 893 420 l 783 420 l 766 332 q 327 -2 699 -2 q 27 281 -29 -2 q 194 493 58 435 q 112 702 81 551 m 376 420 q 208 284 235 420 q 357 142 180 142 q 586 334 548 142 l 604 420 l 376 420 z "},"'":{"ha":302,"x_min":127,"x_max":332,"o":"m 332 970 l 252 675 l 127 675 l 165 970 l 332 970 z "},"(":{"ha":434,"x_min":-19,"x_max":481,"o":"m 481 970 q 222 356 283 663 q 235 -258 161 49 l 56 -258 q 43 356 -19 49 q 301 970 104 663 l 481 970 z "},")":{"ha":434,"x_min":-97,"x_max":403,"o":"m 328 970 q 341 356 403 663 q 83 -258 279 49 l -97 -258 q 161 356 100 49 q 149 970 223 663 l 328 970 z "},"*":{"ha":549,"x_min":127,"x_max":542,"o":"m 320 970 l 426 970 l 374 812 l 530 881 l 542 781 l 382 752 l 467 637 l 370 574 l 321 713 l 218 575 l 145 635 l 278 751 l 127 780 l 180 882 l 309 812 l 320 970 z "},"+":{"ha":644,"x_min":28,"x_max":566,"o":"m 240 427 l 277 610 l 419 610 l 382 427 l 566 427 l 537 285 l 354 285 l 317 102 l 175 102 l 212 285 l 28 285 l 57 427 l 240 427 z "},",":{"ha":315,"x_min":-113,"x_max":227,"o":"m 227 125 l 66 -170 l -113 -170 l 47 125 l 227 125 z "},"-":{"ha":475,"x_min":28,"x_max":396,"o":"m 396 427 l 368 285 l 28 285 l 57 427 l 396 427 z "},".":{"ha":315,"x_min":-28,"x_max":184,"o":"m 184 166 l 151 0 l -28 0 l 5 166 l 184 166 z "},"/":{"ha":719,"x_min":-79,"x_max":800,"o":"m 114 0 l -79 0 l 606 970 l 800 970 l 114 0 z "},":":{"ha":332,"x_min":-12,"x_max":311,"o":"m 311 712 l 277 546 l 98 546 l 131 712 l 311 712 m 201 166 l 168 0 l -12 0 l 22 166 l 201 166 z "},";":{"ha":417,"x_min":-62,"x_max":395,"o":"m 395 712 l 362 546 l 182 546 l 216 712 l 395 712 m 278 125 l 117 -170 l -62 -170 l 98 125 l 278 125 z "},"<":{"ha":746,"x_min":30,"x_max":718,"o":"m 30 292 l 56 420 l 718 678 l 684 509 l 264 353 l 623 203 l 589 34 l 30 292 z "},"=":{"ha":644,"x_min":4,"x_max":590,"o":"m 541 305 l 513 163 l 4 163 l 33 305 l 541 305 m 590 549 l 562 407 l 53 407 l 81 549 l 590 549 z "},">":{"ha":746,"x_min":-22,"x_max":666,"o":"m -22 34 l 12 203 l 431 353 l 73 509 l 107 678 l 666 420 l 640 292 l -22 34 z "},"?":{"ha":756,"x_min":73,"x_max":786,"o":"m 286 166 l 253 0 l 73 0 l 106 166 l 286 166 m 159 936 q 437 970 308 970 q 733 705 786 970 q 334 407 673 407 l 303 251 l 123 251 l 183 549 l 363 549 q 567 705 536 549 q 408 827 591 827 q 130 793 279 827 l 159 936 z "},"@":{"ha":1485,"x_min":-80,"x_max":1516,"o":"m 899 551 q 763 567 858 567 q 547 348 590 567 q 613 149 507 149 q 856 335 745 149 l 899 551 m 985 80 q 1031 41 977 41 q 1215 366 1149 41 q 823 834 1308 834 q 224 366 318 834 q 586 -115 128 -115 l 557 -258 q 45 366 -80 -258 q 841 977 167 977 q 1394 366 1516 977 q 977 -102 1301 -102 q 804 50 773 -102 l 823 152 l 825 183 q 549 0 709 0 q 368 347 299 0 q 811 712 441 712 q 1105 683 935 712 l 985 80 z "},"A":{"ha":1059,"x_min":-79,"x_max":946,"o":"m 112 0 l -79 0 l 526 970 l 720 970 l 946 0 l 760 0 l 702 264 l 380 264 l 473 420 l 668 420 l 588 785 l 112 0 z "},"B":{"ha":896,"x_min":5,"x_max":930,"o":"m 5 0 l 199 970 l 654 970 q 885 744 930 970 q 658 507 852 578 q 806 287 843 471 q 446 0 749 0 l 5 0 m 469 156 q 613 278 589 156 q 465 429 644 429 l 411 429 l 434 545 q 695 732 665 583 q 611 814 711 814 l 348 814 l 216 156 l 469 156 z "},"C":{"ha":943,"x_min":-30,"x_max":964,"o":"m 787 41 q 492 -7 652 -7 q 71 498 -30 -7 q 689 977 167 977 q 964 929 848 977 l 932 766 q 671 821 817 821 q 258 498 322 821 q 537 149 188 149 q 819 203 683 149 l 787 41 z "},"D":{"ha":1014,"x_min":5,"x_max":1061,"o":"m 416 156 q 789 511 718 156 q 548 814 850 814 l 348 814 l 216 156 l 416 156 m 5 0 l 199 970 l 579 970 q 969 511 1061 970 q 385 0 867 0 l 5 0 z "},"E":{"ha":840,"x_min":5,"x_max":863,"o":"m 863 970 l 832 815 l 347 815 l 298 571 l 760 571 l 728 410 l 264 410 l 213 156 l 710 156 l 679 0 l 5 0 l 199 970 l 863 970 z "},"F":{"ha":789,"x_min":5,"x_max":836,"o":"m 836 970 l 805 815 l 347 815 l 298 571 l 733 571 l 701 410 l 264 410 l 182 0 l 5 0 l 199 970 l 836 970 z "},"G":{"ha":943,"x_min":-30,"x_max":964,"o":"m 787 45 q 484 -7 660 -7 q 71 498 -30 -7 q 689 977 167 977 q 964 929 848 977 l 932 766 q 671 821 817 821 q 258 498 322 821 q 517 149 188 149 q 632 165 566 149 l 688 448 l 868 448 l 787 45 z "},"H":{"ha":1041,"x_min":5,"x_max":1037,"o":"m 5 0 l 199 970 l 379 970 l 299 570 l 777 570 l 857 970 l 1037 970 l 843 0 l 663 0 l 746 414 l 268 414 l 185 0 l 5 0 z "},"I":{"ha":383,"x_min":5,"x_max":379,"o":"m 379 970 l 185 0 l 5 0 l 199 970 l 379 970 z "},"J":{"ha":502,"x_min":-79,"x_max":498,"o":"m 498 970 l 359 279 q -79 0 304 0 l -48 156 q 180 279 155 156 l 318 970 l 498 970 z "},"K":{"ha":983,"x_min":5,"x_max":1034,"o":"m 379 970 l 185 0 l 5 0 l 199 970 l 379 970 m 1034 970 l 496 499 l 890 0 l 655 0 l 330 453 l 353 570 l 808 970 l 1034 970 z "},"L":{"ha":734,"x_min":5,"x_max":602,"o":"m 379 970 l 216 156 l 602 156 l 570 0 l 5 0 l 199 970 l 379 970 z "},"M":{"ha":1221,"x_min":5,"x_max":1217,"o":"m 5 0 l 199 970 l 386 970 l 568 234 l 1037 970 l 1217 970 l 1023 0 l 857 0 l 991 675 l 593 0 l 440 0 l 307 675 l 172 0 l 5 0 z "},"N":{"ha":1068,"x_min":5,"x_max":1064,"o":"m 5 0 l 199 970 l 379 970 l 753 277 l 891 970 l 1064 970 l 870 0 l 690 0 l 320 708 l 178 0 l 5 0 z "},"O":{"ha":1102,"x_min":-8,"x_max":1133,"o":"m 256 488 q 488 149 188 149 q 849 488 781 149 q 623 821 916 821 q 256 488 322 821 m 68 484 q 654 977 167 977 q 1035 484 1133 977 q 457 -7 937 -7 q 68 484 -8 -7 z "},"P":{"ha":850,"x_min":5,"x_max":930,"o":"m 5 0 l 199 970 l 633 970 q 876 696 930 970 q 398 338 817 400 l 404 498 q 687 691 657 542 q 590 812 711 812 l 347 812 l 185 0 l 5 0 z "},"Q":{"ha":1102,"x_min":-2,"x_max":1133,"o":"m 488 149 q 849 488 781 149 q 623 821 916 821 q 256 488 322 821 q 488 149 188 149 m 385 -3 q 68 484 -2 33 q 654 977 167 977 q 1035 484 1133 977 q 541 -3 945 38 q 717 -122 567 -120 q 863 -102 805 -122 l 835 -244 q 688 -264 777 -264 q 385 -3 381 -264 z "},"R":{"ha":892,"x_min":5,"x_max":937,"o":"m 5 1 l 199 970 l 640 970 q 885 710 937 970 q 595 419 844 505 l 819 0 l 610 0 l 399 422 l 415 505 q 696 705 665 549 q 597 812 718 812 l 351 812 l 189 1 l 5 1 z "},"S":{"ha":868,"x_min":-3,"x_max":873,"o":"m -3 41 l 29 203 q 348 149 164 149 q 601 298 571 149 q 486 407 623 407 l 334 407 q 90 678 36 407 q 574 977 150 977 q 873 929 736 977 l 840 766 q 543 821 705 821 q 270 678 298 821 q 366 570 248 570 l 518 570 q 781 298 835 570 q 317 -7 720 -7 q -3 41 133 -7 z "},"T":{"ha":736,"x_min":66,"x_max":833,"o":"m 833 970 l 802 814 l 524 814 l 361 0 l 182 0 l 345 814 l 66 814 l 98 970 l 833 970 z "},"U":{"ha":1038,"x_min":4,"x_max":1034,"o":"m 81 381 l 199 970 l 379 970 l 261 381 q 452 149 215 149 q 736 381 690 149 l 854 970 l 1034 970 l 916 381 q 421 -7 838 -7 q 81 381 4 -7 z "},"V":{"ha":1025,"x_min":98,"x_max":1123,"o":"m 1123 970 l 504 0 l 311 0 l 98 970 l 304 970 l 456 227 l 905 970 l 1123 970 z "},"W":{"ha":1282,"x_min":87,"x_max":1356,"o":"m 121 970 l 297 970 l 262 273 l 653 970 l 826 970 l 928 300 l 1172 970 l 1356 970 l 979 0 l 808 0 l 694 761 l 256 0 l 87 0 l 121 970 z "},"X":{"ha":1019,"x_min":-79,"x_max":1105,"o":"m 399 485 l 115 970 l 335 970 l 532 609 l 871 970 l 1105 970 l 627 485 l 911 0 l 690 0 l 493 361 l 155 0 l -79 0 l 399 485 z "},"Y":{"ha":882,"x_min":115,"x_max":1023,"o":"m 115 970 l 301 970 l 480 503 l 830 970 l 1023 970 l 541 339 l 473 0 l 293 0 l 361 339 l 115 970 z "},"Z":{"ha":848,"x_min":-12,"x_max":901,"o":"m 901 970 l 870 814 l 222 156 l 739 156 l 707 0 l -12 0 l 20 156 l 676 814 l 165 814 l 196 970 l 901 970 z "},"[":{"ha":461,"x_min":-80,"x_max":525,"o":"m 525 970 l 496 827 l 317 827 l 128 -115 l 308 -115 l 279 -258 l -80 -258 l 165 970 l 525 970 z "},"\\":{"ha":712,"x_min":115,"x_max":599,"o":"m 115 970 l 301 970 l 599 0 l 412 0 l 115 970 z "},"]":{"ha":461,"x_min":-114,"x_max":491,"o":"m 491 970 l 245 -258 l -114 -258 l -85 -115 l 94 -115 l 283 827 l 103 827 l 132 970 l 491 970 z "},"^":{"ha":712,"x_min":33,"x_max":677,"o":"m 403 970 l 505 970 l 677 475 l 521 475 l 416 795 l 189 475 l 33 475 l 403 970 z "},"_":{"ha":712,"x_min":-108,"x_max":599,"o":"m 599 0 l 570 -142 l -108 -142 l -79 0 l 599 0 z "},"`":{"ha":450,"x_min":165,"x_max":444,"o":"m 444 794 l 292 794 l 165 970 l 382 970 l 444 794 z "},"a":{"ha":805,"x_min":-45,"x_max":760,"o":"m 554 551 q 418 567 513 567 q 202 348 245 567 q 269 149 162 149 q 511 335 400 149 l 554 551 m 624 0 l 465 0 l 481 183 q 204 0 364 0 q 24 347 -45 0 q 467 712 97 712 q 760 683 591 712 l 624 0 z "},"b":{"ha":799,"x_min":-5,"x_max":794,"o":"m 201 165 q 340 145 259 145 q 551 382 503 145 q 467 563 587 563 q 247 391 355 563 l 201 165 m 182 970 l 362 970 l 277 543 q 558 712 391 712 q 729 384 794 712 q 304 0 652 0 q -5 29 157 0 l 182 970 z "},"c":{"ha":637,"x_min":-56,"x_max":639,"o":"m 518 88 q 283 0 412 0 q 17 363 -56 0 q 453 712 87 712 q 639 692 555 712 l 610 549 q 438 570 526 570 q 197 363 238 570 q 326 142 153 142 q 547 231 441 142 l 518 88 z "},"d":{"ha":805,"x_min":-45,"x_max":818,"o":"m 554 551 q 418 567 513 567 q 202 348 245 567 q 269 149 162 149 q 511 335 400 149 l 554 551 m 624 0 l 465 0 l 481 183 q 204 0 364 0 q 24 347 -45 0 q 467 712 97 712 q 585 707 522 712 l 638 970 l 818 970 l 624 0 z "},"e":{"ha":733,"x_min":-56,"x_max":732,"o":"m 428 712 q 689 499 732 712 q 359 286 646 286 l 181 286 q 340 142 153 142 q 607 231 481 142 l 578 88 q 298 0 467 0 q 17 364 -56 0 q 428 712 87 712 m 208 418 l 387 418 q 515 494 499 418 q 399 571 530 571 q 208 418 250 571 z "},"f":{"ha":486,"x_min":-136,"x_max":663,"o":"m 311 712 l 524 712 l 496 570 l 282 570 l 179 54 q -15 -297 136 -161 l -136 -199 q -1 54 -33 -107 l 131 712 q 509 1005 189 1005 q 663 978 597 1005 l 634 836 q 480 863 572 863 q 311 712 340 863 z "},"g":{"ha":805,"x_min":-45,"x_max":760,"o":"m 554 551 q 418 567 513 567 q 202 348 245 567 q 269 149 162 149 q 511 335 400 149 l 554 551 m 624 0 q 191 -258 572 -258 q -36 -224 59 -258 l -7 -81 q 220 -115 90 -115 q 444 0 421 -115 l 481 183 q 204 0 364 0 q 24 347 -45 0 q 467 712 97 712 q 760 683 591 712 l 624 0 z "},"h":{"ha":838,"x_min":-12,"x_max":799,"o":"m -12 0 l 182 970 l 362 970 l 265 486 q 593 712 395 712 q 753 481 799 712 l 656 0 l 477 0 l 573 483 q 493 567 590 567 q 237 341 365 567 l 168 0 l -12 0 z "},"i":{"ha":349,"x_min":-12,"x_max":362,"o":"m 362 970 l 334 827 l 154 827 l 182 970 l 362 970 m 311 712 l 168 0 l -12 0 l 131 712 l 311 712 z "},"j":{"ha":349,"x_min":-136,"x_max":362,"o":"m 362 970 l 334 827 l 154 827 l 182 970 l 362 970 m 311 712 l 179 54 q -15 -297 136 -161 l -136 -199 q -1 54 -33 -107 l 131 712 l 311 712 z "},"k":{"ha":821,"x_min":-12,"x_max":816,"o":"m -12 0 l 182 970 l 362 970 l 273 521 q 597 712 421 712 q 777 520 816 712 q 536 289 750 385 l 698 0 l 492 0 l 354 269 l 366 325 q 601 500 576 379 q 519 570 614 570 q 242 370 395 570 l 168 0 l -12 0 z "},"l":{"ha":349,"x_min":-12,"x_max":362,"o":"m 362 970 l 168 0 l -12 0 l 182 970 l 362 970 z "},"m":{"ha":1244,"x_min":-12,"x_max":1206,"o":"m -12 0 l 131 712 l 290 712 l 264 480 q 541 712 387 712 q 698 479 745 712 q 987 712 834 712 q 1152 441 1206 712 l 1063 0 l 884 0 l 973 448 q 917 567 997 567 q 684 339 803 567 l 616 0 l 436 0 l 526 446 q 471 567 549 567 q 236 339 351 567 l 168 0 l -12 0 z "},"n":{"ha":838,"x_min":-12,"x_max":799,"o":"m -12 0 l 131 712 l 290 712 l 262 472 q 593 712 395 712 q 753 481 799 712 l 656 0 l 477 0 l 573 483 q 493 567 590 567 q 237 341 365 567 l 168 0 l -12 0 z "},"o":{"ha":793,"x_min":-45,"x_max":790,"o":"m 206 359 q 328 136 161 136 q 538 359 494 136 q 416 576 582 576 q 206 359 250 576 m 26 356 q 444 719 98 719 q 718 356 790 719 q 299 -6 645 -6 q 26 356 -45 -6 z "},"p":{"ha":799,"x_min":-63,"x_max":794,"o":"m 201 165 q 340 145 259 145 q 551 382 503 145 q 467 563 587 563 q 246 391 355 563 l 201 165 m 131 712 l 290 712 l 277 543 q 558 712 391 712 q 728 384 794 712 q 304 0 652 0 q 170 6 238 0 l 117 -258 l -63 -258 l 131 712 z "},"q":{"ha":805,"x_min":-45,"x_max":760,"o":"m 554 551 q 418 567 513 567 q 202 348 245 567 q 269 149 162 149 q 511 335 400 149 l 554 551 m 572 -258 l 393 -258 l 481 183 q 204 0 364 0 q 24 347 -45 0 q 467 712 97 712 q 760 683 591 712 l 572 -258 z "},"r":{"ha":495,"x_min":-12,"x_max":524,"o":"m -12 0 l 131 712 l 290 712 l 265 486 q 524 712 386 712 l 494 560 q 237 341 359 560 l 168 0 l -12 0 z "},"s":{"ha":695,"x_min":-5,"x_max":660,"o":"m -5 34 l 25 183 q 290 136 134 136 q 420 210 406 136 q 356 278 434 278 l 227 278 q 54 495 10 278 q 415 719 98 719 q 660 678 549 719 l 630 529 q 382 576 521 576 q 221 502 236 576 q 292 434 208 434 l 408 434 q 602 217 645 434 q 254 -7 557 -7 q -5 34 106 -7 z "},"t":{"ha":461,"x_min":-12,"x_max":456,"o":"m 154 827 l 287 827 l 291 712 l 456 712 l 428 570 l 282 570 l 216 242 q 283 142 197 142 l 342 142 l 314 0 l 168 0 q 27 192 -12 0 l 154 827 z "},"u":{"ha":838,"x_min":-12,"x_max":799,"o":"m 799 712 l 656 0 l 497 0 l 525 240 q 194 0 393 0 q 35 231 -12 0 l 131 712 l 311 712 l 214 229 q 294 145 197 145 q 551 371 422 145 l 619 712 l 799 712 z "},"v":{"ha":732,"x_min":46,"x_max":779,"o":"m 46 712 l 236 712 l 309 214 l 589 712 l 779 712 l 347 0 l 176 0 l 46 712 z "},"w":{"ha":1075,"x_min":-45,"x_max":1040,"o":"m 165 712 l 345 712 q 209 373 246 559 q 257 156 165 156 q 426 373 382 156 l 494 712 l 673 712 l 606 373 q 688 156 562 156 q 823 373 779 156 q 823 712 860 559 l 1002 712 q 1002 373 1040 559 q 656 0 928 0 q 479 196 497 0 q 226 0 385 0 q 29 373 -45 0 q 165 712 66 559 z "},"x":{"ha":732,"x_min":-96,"x_max":779,"o":"m 241 356 l 46 712 l 239 712 l 361 483 l 572 712 l 779 712 l 441 356 l 636 0 l 443 0 l 321 229 l 111 0 l -96 0 l 241 356 z "},"y":{"ha":838,"x_min":-12,"x_max":799,"o":"m 525 240 q 194 0 393 0 q 35 231 -12 0 l 131 712 l 311 712 l 214 229 q 294 145 197 145 q 551 371 422 145 l 619 712 l 799 712 l 656 0 q 223 -258 605 -258 q -3 -224 92 -258 l 25 -81 q 253 -115 122 -115 q 477 0 454 -115 l 525 240 z "},"z":{"ha":651,"x_min":-42,"x_max":643,"o":"m 114 712 l 643 712 l 614 570 l 184 136 l 514 136 l 487 0 l -42 0 l -15 136 l 414 570 l 85 570 l 114 712 z "},"{":{"ha":512,"x_min":27,"x_max":576,"o":"m 576 970 q 422 646 464 850 q 195 356 375 407 q 307 66 355 305 q 330 -258 266 -138 l 151 -258 q 127 66 86 -138 q 27 278 170 278 l 58 434 q 243 646 201 434 q 396 970 284 850 l 576 970 z "},"|":{"ha":383,"x_min":-46,"x_max":379,"o":"m 379 970 l 134 -258 l -46 -258 l 199 970 l 379 970 z "},"}":{"ha":512,"x_min":-114,"x_max":435,"o":"m 311 970 q 334 646 376 850 q 435 434 292 434 l 404 278 q 219 66 261 278 q 66 -258 178 -138 l -114 -258 q 39 66 -2 -138 q 212 356 87 305 q 155 646 107 407 q 132 970 196 850 l 311 970 z "},"~":{"ha":644,"x_min":26,"x_max":568,"o":"m 54 414 q 172 455 102 455 q 304 427 231 455 q 439 400 378 400 q 568 441 513 400 l 540 298 q 422 258 492 258 q 290 285 363 258 q 155 313 216 313 q 26 271 81 313 l 54 414 z "},"Ä":{"ha":1059,"x_min":-79,"x_max":946,"o":"m 112 0 l -79 0 l 526 970 l 720 970 l 946 0 l 760 0 l 702 264 l 380 264 l 473 420 l 668 420 l 588 785 l 112 0 m 857 1227 l 831 1099 l 685 1099 l 711 1227 l 857 1227 m 626 1227 l 600 1099 l 454 1099 l 480 1227 l 626 1227 z "},"Å":{"ha":1059,"x_min":-79,"x_max":946,"o":"m 630 1000 q 739 1093 721 1000 q 667 1183 758 1183 q 555 1093 573 1183 q 630 1000 536 1000 m 112 0 l -79 0 l 526 970 l 529 970 q 494 1091 476 1003 q 677 1234 522 1234 q 800 1091 829 1234 q 718 970 783 1003 l 720 970 l 946 0 l 760 0 l 702 264 l 380 264 l 473 420 l 668 420 l 588 785 l 112 0 z "},"Ç":{"ha":943,"x_min":-20,"x_max":964,"o":"m 391 -1 q 71 498 -20 45 q 689 977 167 977 q 964 929 848 977 l 932 766 q 671 821 817 821 q 258 498 322 821 q 537 149 188 149 q 819 203 683 149 l 787 41 q 497 -7 654 -6 l 463 -52 q 587 -162 608 -52 q 378 -286 562 -286 q 238 -252 304 -286 l 256 -165 q 395 -199 322 -199 q 476 -162 469 -199 q 426 -132 482 -132 l 302 -132 l 391 -1 z "},"É":{"ha":840,"x_min":5,"x_max":863,"o":"m 863 970 l 832 815 l 347 815 l 298 571 l 760 571 l 728 410 l 264 410 l 213 156 l 710 156 l 679 0 l 5 0 l 199 970 l 863 970 m 556 1227 l 772 1227 l 575 1052 l 423 1052 l 556 1227 z "},"Ñ":{"ha":1068,"x_min":5,"x_max":1064,"o":"m 5 0 l 199 970 l 379 970 l 753 277 l 891 970 l 1064 970 l 870 0 l 690 0 l 320 708 l 178 0 l 5 0 m 499 1196 q 593 1227 546 1227 q 665 1210 629 1227 q 739 1192 701 1192 q 844 1223 789 1192 l 815 1081 q 721 1050 768 1050 q 650 1067 686 1050 q 576 1085 614 1085 q 471 1054 525 1085 l 499 1196 z "},"Ö":{"ha":1102,"x_min":-8,"x_max":1133,"o":"m 256 488 q 488 149 188 149 q 849 488 781 149 q 623 821 916 821 q 256 488 322 821 m 68 484 q 654 977 167 977 q 1035 484 1133 977 q 457 -7 937 -7 q 68 484 -8 -7 m 891 1227 l 865 1099 l 720 1099 l 745 1227 l 891 1227 m 661 1227 l 635 1099 l 489 1099 l 515 1227 l 661 1227 z "},"Ü":{"ha":1038,"x_min":4,"x_max":1034,"o":"m 81 381 l 199 970 l 379 970 l 261 381 q 452 149 215 149 q 736 381 690 149 l 854 970 l 1034 970 l 916 381 q 421 -7 838 -7 q 81 381 4 -7 m 846 1227 l 820 1099 l 674 1099 l 700 1227 l 846 1227 m 615 1227 l 589 1099 l 444 1099 l 469 1227 l 615 1227 z "},"á":{"ha":805,"x_min":-45,"x_max":760,"o":"m 554 551 q 418 567 513 567 q 202 348 245 567 q 269 149 162 149 q 511 335 400 149 l 554 551 m 624 0 l 465 0 l 481 183 q 204 0 364 0 q 24 347 -45 0 q 467 712 97 712 q 760 683 591 712 l 624 0 m 510 970 l 726 970 l 529 794 l 377 794 l 510 970 z "},"à":{"ha":805,"x_min":-45,"x_max":760,"o":"m 554 551 q 418 567 513 567 q 202 348 245 567 q 269 149 162 149 q 511 335 400 149 l 554 551 m 624 0 l 465 0 l 481 183 q 204 0 364 0 q 24 347 -45 0 q 467 712 97 712 q 760 683 591 712 l 624 0 m 587 794 l 435 794 l 308 970 l 524 970 l 587 794 z "},"â":{"ha":805,"x_min":-45,"x_max":760,"o":"m 554 551 q 418 567 513 567 q 202 348 245 567 q 269 149 162 149 q 511 335 400 149 l 554 551 m 624 0 l 465 0 l 481 183 q 204 0 364 0 q 24 347 -45 0 q 467 712 97 712 q 760 683 591 712 l 624 0 m 467 970 l 568 970 l 652 793 l 530 793 l 500 882 l 435 793 l 313 793 l 467 970 z "},"ä":{"ha":805,"x_min":-45,"x_max":760,"o":"m 554 551 q 418 567 513 567 q 202 348 245 567 q 269 149 162 149 q 511 335 400 149 l 554 551 m 624 0 l 465 0 l 481 183 q 204 0 364 0 q 24 347 -45 0 q 467 712 97 712 q 760 683 591 712 l 624 0 m 705 970 l 680 841 l 534 841 l 559 970 l 705 970 m 475 970 l 449 841 l 303 841 l 329 970 l 475 970 z "},"ã":{"ha":805,"x_min":-45,"x_max":760,"o":"m 554 551 q 418 567 513 567 q 202 348 245 567 q 269 149 162 149 q 511 335 400 149 l 554 551 m 624 0 l 465 0 l 481 183 q 204 0 364 0 q 24 347 -45 0 q 467 712 97 712 q 760 683 591 712 l 624 0 m 342 939 q 436 970 389 970 q 507 952 471 970 q 581 935 543 935 q 686 966 632 935 l 658 823 q 564 792 611 792 q 492 810 528 792 q 418 827 456 827 q 313 796 368 827 l 342 939 z "},"å":{"ha":805,"x_min":-45,"x_max":760,"o":"m 554 551 q 418 567 513 567 q 202 348 245 567 q 269 149 162 149 q 511 335 400 149 l 554 551 m 624 0 l 465 0 l 481 183 q 204 0 364 0 q 24 347 -45 0 q 467 712 97 712 q 760 683 591 712 l 624 0 m 416 924 q 491 831 397 831 q 600 924 582 831 q 528 1015 618 1015 q 416 924 434 1015 m 355 923 q 538 1065 383 1065 q 661 923 690 1065 q 481 781 633 781 q 355 923 326 781 z "},"ç":{"ha":637,"x_min":-46,"x_max":639,"o":"m 199 7 q 17 363 -46 49 q 453 712 87 712 q 639 692 555 712 l 610 549 q 438 570 526 570 q 197 363 238 570 q 326 142 153 142 q 547 231 441 142 l 518 88 q 305 1 421 7 l 266 -52 q 389 -162 411 -52 q 180 -286 364 -286 q 41 -252 107 -286 l 58 -165 q 198 -199 125 -199 q 279 -162 271 -199 q 229 -132 285 -132 l 104 -132 l 199 7 z "},"é":{"ha":733,"x_min":-56,"x_max":732,"o":"m 428 712 q 689 499 732 712 q 359 286 646 286 l 181 286 q 340 142 153 142 q 607 231 481 142 l 578 88 q 298 0 467 0 q 17 364 -56 0 q 428 712 87 712 m 208 418 l 387 418 q 515 494 499 418 q 399 571 530 571 q 208 418 250 571 m 454 970 l 670 970 l 473 794 l 321 794 l 454 970 z "},"è":{"ha":733,"x_min":-56,"x_max":732,"o":"m 428 712 q 689 499 732 712 q 359 286 646 286 l 181 286 q 340 142 153 142 q 607 231 481 142 l 578 88 q 298 0 467 0 q 17 364 -56 0 q 428 712 87 712 m 208 418 l 387 418 q 515 494 499 418 q 399 571 530 571 q 208 418 250 571 m 557 794 l 406 794 l 279 970 l 495 970 l 557 794 z "},"ê":{"ha":733,"x_min":-56,"x_max":732,"o":"m 428 712 q 689 499 732 712 q 359 286 646 286 l 181 286 q 340 142 153 142 q 607 231 481 142 l 578 88 q 298 0 467 0 q 17 364 -56 0 q 428 712 87 712 m 208 418 l 387 418 q 515 494 499 418 q 399 571 530 571 q 208 418 250 571 m 417 970 l 519 970 l 602 793 l 480 793 l 450 882 l 385 793 l 263 793 l 417 970 z "},"ë":{"ha":733,"x_min":-56,"x_max":732,"o":"m 428 712 q 689 499 732 712 q 359 286 646 286 l 181 286 q 340 142 153 142 q 607 231 481 142 l 578 88 q 298 0 467 0 q 17 364 -56 0 q 428 712 87 712 m 208 418 l 387 418 q 515 494 499 418 q 399 571 530 571 q 208 418 250 571 m 656 970 l 630 841 l 484 841 l 510 970 l 656 970 m 425 970 l 399 841 l 254 841 l 279 970 l 425 970 z "},"í":{"ha":349,"x_min":-12,"x_max":481,"o":"m 311 712 l 168 0 l -12 0 l 131 712 l 311 712 m 265 970 l 481 970 l 284 794 l 132 794 l 265 970 z "},"ì":{"ha":349,"x_min":-12,"x_max":342,"o":"m 311 712 l 168 0 l -12 0 l 131 712 l 311 712 m 342 794 l 190 794 l 63 970 l 279 970 l 342 794 z "},"î":{"ha":349,"x_min":-11,"x_max":407,"o":"m 311 712 l 169 0 l -11 0 l 132 712 l 311 712 m 222 970 l 323 970 l 407 793 l 285 793 l 255 882 l 190 793 l 68 793 l 222 970 z "},"ï":{"ha":349,"x_min":-12,"x_max":460,"o":"m 311 712 l 168 0 l -12 0 l 131 712 l 311 712 m 460 970 l 435 841 l 289 841 l 315 970 l 460 970 m 230 970 l 204 841 l 58 841 l 84 970 l 230 970 z "},"ñ":{"ha":838,"x_min":-12,"x_max":799,"o":"m -12 0 l 131 712 l 290 712 l 262 472 q 593 712 395 712 q 753 481 799 712 l 656 0 l 477 0 l 573 483 q 493 567 590 567 q 237 341 365 567 l 168 0 l -12 0 m 341 939 q 435 970 388 970 q 507 952 471 970 q 581 935 543 935 q 686 966 631 935 l 657 823 q 563 792 610 792 q 492 810 528 792 q 418 827 456 827 q 313 796 367 827 l 341 939 z "},"ó":{"ha":793,"x_min":-45,"x_max":790,"o":"m 206 359 q 328 136 161 136 q 538 359 494 136 q 416 576 582 576 q 206 359 250 576 m 26 356 q 444 719 98 719 q 718 356 790 719 q 299 -6 645 -6 q 26 356 -45 -6 m 488 970 l 704 970 l 507 794 l 355 794 l 488 970 z "},"ò":{"ha":793,"x_min":-45,"x_max":790,"o":"m 206 359 q 328 136 161 136 q 538 359 494 136 q 416 576 582 576 q 206 359 250 576 m 26 356 q 444 719 98 719 q 718 356 790 719 q 299 -6 645 -6 q 26 356 -45 -6 m 564 794 l 412 794 l 285 970 l 501 970 l 564 794 z "},"ô":{"ha":793,"x_min":-45,"x_max":790,"o":"m 206 359 q 328 136 161 136 q 538 359 494 136 q 416 576 582 576 q 206 359 250 576 m 26 356 q 444 719 98 719 q 718 356 790 719 q 299 -6 645 -6 q 26 356 -45 -6 m 444 970 l 545 970 l 629 793 l 507 793 l 477 882 l 412 793 l 290 793 l 444 970 z "},"ö":{"ha":793,"x_min":-45,"x_max":790,"o":"m 206 359 q 328 136 161 136 q 538 359 494 136 q 416 576 582 576 q 206 359 250 576 m 26 356 q 444 719 98 719 q 718 356 790 719 q 299 -6 645 -6 q 26 356 -45 -6 m 683 970 l 657 841 l 511 841 l 537 970 l 683 970 m 452 970 l 427 841 l 281 841 l 307 970 l 452 970 z "},"õ":{"ha":793,"x_min":-45,"x_max":790,"o":"m 206 359 q 328 136 161 136 q 538 359 494 136 q 416 576 582 576 q 206 359 250 576 m 26 356 q 444 719 98 719 q 718 356 790 719 q 299 -6 645 -6 q 26 356 -45 -6 m 319 939 q 413 970 366 970 q 484 952 448 970 q 558 935 520 935 q 663 966 609 935 l 635 823 q 541 792 588 792 q 469 810 505 792 q 395 827 433 827 q 290 796 345 827 l 319 939 z "},"ú":{"ha":838,"x_min":-12,"x_max":799,"o":"m 799 712 l 656 0 l 497 0 l 525 240 q 194 0 393 0 q 35 231 -12 0 l 131 712 l 311 712 l 214 229 q 294 145 197 145 q 551 371 422 145 l 619 712 l 799 712 m 509 970 l 726 970 l 528 794 l 376 794 l 509 970 z "},"ù":{"ha":838,"x_min":-12,"x_max":799,"o":"m 799 712 l 656 0 l 497 0 l 525 240 q 194 0 393 0 q 35 231 -12 0 l 131 712 l 311 712 l 214 229 q 294 145 197 145 q 551 371 422 145 l 619 712 l 799 712 m 586 794 l 434 794 l 307 970 l 524 970 l 586 794 z "},"û":{"ha":838,"x_min":-12,"x_max":799,"o":"m 799 712 l 656 0 l 497 0 l 525 240 q 194 0 393 0 q 35 231 -12 0 l 131 712 l 311 712 l 214 229 q 294 145 197 145 q 551 371 422 145 l 619 712 l 799 712 m 466 970 l 568 970 l 651 793 l 529 793 l 499 882 l 434 793 l 312 793 l 466 970 z "},"ü":{"ha":838,"x_min":-12,"x_max":799,"o":"m 799 712 l 656 0 l 497 0 l 525 240 q 194 0 393 0 q 35 231 -12 0 l 131 712 l 311 712 l 214 229 q 294 145 197 145 q 551 371 422 145 l 619 712 l 799 712 m 705 970 l 679 841 l 533 841 l 559 970 l 705 970 m 474 970 l 448 841 l 302 841 l 328 970 l 474 970 z "},"†":{"ha":756,"x_min":43,"x_max":763,"o":"m 569 970 l 512 685 l 763 685 l 732 529 l 481 529 l 375 0 l 195 0 l 301 529 l 43 529 l 75 685 l 332 685 l 389 970 l 569 970 z "},"°":{"ha":591,"x_min":79,"x_max":621,"o":"m 251 754 q 332 654 231 654 q 449 754 429 654 q 371 852 469 852 q 251 754 271 852 m 122 753 q 395 970 165 970 q 578 753 621 970 q 308 536 534 536 q 122 753 79 536 z "},"¢":{"ha":637,"x_min":-20,"x_max":665,"o":"m 368 834 l 395 970 l 568 970 l 543 842 q 665 823 608 837 l 637 681 q 465 701 553 701 q 223 494 264 701 q 352 274 179 274 q 573 362 467 274 l 545 220 q 404 144 479 165 l 374 0 l 201 0 l 229 138 q 43 494 -20 178 q 368 834 102 787 z "},"£":{"ha":825,"x_min":-33,"x_max":843,"o":"m -4 123 q 154 280 132 174 q 141 477 170 359 q 132 696 113 595 q 567 977 189 977 q 843 909 750 977 l 810 746 q 534 834 721 834 q 321 698 348 834 q 317 563 301 600 l 579 563 l 551 420 l 338 420 q 336 282 350 350 q 269 161 318 189 q 302 164 284 164 q 441 135 359 164 q 507 123 472 123 q 699 190 592 123 l 668 34 q 464 -23 575 -23 q 332 -4 400 -23 q 169 18 248 18 q -33 -20 65 18 l -4 123 z "},"§":{"ha":739,"x_min":11,"x_max":730,"o":"m 11 27 l 41 176 q 279 136 151 136 q 435 197 422 136 q 343 264 448 264 l 296 264 q 66 475 24 264 q 184 621 88 582 q 126 773 104 662 q 484 977 167 977 q 730 943 618 977 l 700 793 q 455 834 589 834 q 292 773 304 834 q 384 705 279 705 l 431 705 q 675 497 716 705 q 569 347 654 395 q 614 197 637 310 q 251 -7 574 -7 q 11 27 123 -7 m 235 486 q 324 406 219 406 l 372 406 q 491 477 477 406 q 403 564 508 564 l 355 564 q 235 486 250 564 z "},"•":{"ha":427,"x_min":41,"x_max":391,"o":"m 70 492 q 245 637 99 637 q 361 492 391 637 q 186 346 332 346 q 70 492 41 346 z "},"¶":{"ha":646,"x_min":-23,"x_max":744,"o":"m 146 -294 l 277 365 q 38 669 -23 365 q 398 970 98 970 l 744 970 l 732 909 l 630 909 l 390 -294 l 322 -294 l 562 909 l 454 909 l 214 -294 l 146 -294 z "},"ß":{"ha":825,"x_min":-136,"x_max":842,"o":"m 118 650 q 524 968 182 968 q 791 712 842 968 l 773 621 q 541 493 559 585 q 650 407 532 445 q 739 225 768 368 q 407 0 694 0 l 263 0 l 292 142 l 437 142 q 550 212 536 142 q 452 318 564 280 q 368 491 341 357 q 608 712 395 625 q 490 825 630 825 q 298 648 333 825 l 179 54 q -15 -297 136 -161 l -136 -199 q -1 54 -33 -107 l 118 650 z "},"®":{"ha":789,"x_min":96,"x_max":787,"o":"m 281 513 l 353 876 l 509 876 q 595 789 612 876 q 472 684 581 718 l 563 513 l 501 513 l 418 676 l 424 707 q 545 787 532 724 q 496 838 554 838 l 392 838 l 328 513 l 281 513 m 194 695 q 387 450 145 450 q 680 695 631 450 q 486 945 730 945 q 194 695 244 945 m 144 694 q 494 983 202 983 q 730 694 787 983 q 380 412 673 412 q 144 694 96 412 z "},"©":{"ha":1211,"x_min":4,"x_max":1208,"o":"m 174 488 q 510 54 87 54 q 1039 488 952 54 q 696 916 1124 916 q 174 488 260 916 m 104 490 q 708 977 201 977 q 1111 490 1208 977 q 511 -7 1011 -7 q 104 490 4 -7 m 751 228 q 548 193 660 193 q 326 494 266 193 q 665 776 382 776 q 854 741 777 776 l 841 675 q 662 714 764 714 q 397 494 441 714 q 570 255 349 255 q 765 294 672 255 l 751 228 z "},"™":{"ha":1089,"x_min":190,"x_max":1085,"o":"m 546 970 l 536 922 l 393 922 l 311 513 l 252 513 l 334 922 l 190 922 l 199 970 l 546 970 m 515 513 l 606 970 l 681 970 l 773 589 l 1013 970 l 1085 970 l 994 513 l 941 513 l 1015 882 l 779 513 l 732 513 l 641 882 l 568 513 l 515 513 z "},"´":{"ha":450,"x_min":130,"x_max":479,"o":"m 263 970 l 479 970 l 282 794 l 130 794 l 263 970 z "},"¨":{"ha":512,"x_min":140,"x_max":542,"o":"m 542 970 l 516 841 l 370 841 l 396 970 l 542 970 m 311 970 l 286 841 l 140 841 l 165 970 l 311 970 z "},"Æ":{"ha":1305,"x_min":-79,"x_max":1305,"o":"m 543 407 l 560 264 l 276 264 l 119 0 l -79 0 l 526 970 l 1305 970 l 1274 814 l 739 814 l 799 570 l 1201 570 l 1170 414 l 835 414 l 896 156 l 1156 156 l 1124 0 l 739 0 l 583 776 l 359 407 l 543 407 z "},"Ø":{"ha":1102,"x_min":-3,"x_max":1101,"o":"m 343 179 q 488 149 399 149 q 849 488 781 149 q 844 702 876 622 l 343 179 m 260 274 l 758 795 q 623 821 705 821 q 256 488 322 821 q 260 274 229 355 m 214 44 l 172 0 l -3 0 l 119 127 q 68 484 32 250 q 654 977 167 977 q 890 932 798 977 l 926 970 l 1101 970 l 989 853 q 1035 484 1084 730 q 457 -7 937 -7 q 214 44 307 -7 z "},"±":{"ha":644,"x_min":-28,"x_max":586,"o":"m 260 529 l 297 712 l 439 712 l 403 529 l 586 529 l 557 387 l 374 387 l 338 203 l 195 203 l 232 387 l 49 387 l 77 529 l 260 529 m 509 142 l 480 0 l -28 0 l 0 142 l 509 142 z "},"¥":{"ha":848,"x_min":45,"x_max":911,"o":"m 132 970 l 311 970 l 440 624 l 711 970 l 911 970 l 542 522 l 734 522 l 705 380 l 484 380 l 469 304 l 690 304 l 662 162 l 441 162 l 408 0 l 229 0 l 261 162 l 45 162 l 73 304 l 290 304 l 304 380 l 88 380 l 117 522 l 304 522 l 132 970 z "},"µ":{"ha":838,"x_min":-63,"x_max":799,"o":"m 179 55 l 117 -258 l -63 -258 l 131 712 l 311 712 l 214 229 q 294 145 197 145 q 551 371 422 145 l 619 712 l 799 712 l 656 0 l 497 0 l 525 240 q 269 0 393 0 q 179 55 209 0 z "},"ª":{"ha":454,"x_min":94,"x_max":480,"o":"m 392 897 q 328 905 375 905 q 204 788 228 905 q 240 682 183 682 q 363 755 313 682 l 392 897 m 412 614 l 342 614 l 353 699 q 216 614 296 614 q 129 787 94 614 q 344 970 165 970 q 480 956 416 970 l 412 614 z "},"º":{"ha":475,"x_min":96,"x_max":505,"o":"m 200 793 q 277 678 177 678 q 400 793 377 678 q 322 906 422 906 q 200 793 222 906 m 130 792 q 335 970 165 970 q 469 792 505 970 q 264 614 433 614 q 130 792 96 614 z "},"æ":{"ha":1183,"x_min":-45,"x_max":1188,"o":"m 313 312 q 179 224 197 312 q 262 129 160 129 q 437 178 365 129 l 462 298 q 313 312 390 312 m 664 418 l 844 418 q 971 494 956 418 q 856 571 986 571 q 664 418 707 571 m 521 75 q 237 0 375 0 q -1 223 -45 0 q 339 441 43 441 q 490 426 410 441 q 354 570 518 570 q 122 537 239 570 l 150 676 q 384 712 271 712 q 624 635 568 712 q 884 712 724 712 q 1145 499 1188 712 q 816 286 1103 286 l 637 286 q 796 142 609 142 q 1063 231 938 142 l 1035 88 q 754 0 923 0 q 521 75 593 0 z "},"ø":{"ha":800,"x_min":-56,"x_max":804,"o":"m 262 149 q 334 136 292 136 q 559 359 514 136 q 566 464 571 420 l 262 149 m 191 257 l 489 566 q 422 576 461 576 q 199 359 243 576 q 191 257 187 300 m 140 22 l 119 0 l -56 0 l 43 102 q 19 356 -13 192 q 451 719 92 719 q 611 693 547 719 l 629 712 l 804 712 l 712 616 q 738 356 772 526 q 306 -6 665 -6 q 140 22 206 -6 z "},"¿":{"ha":756,"x_min":-80,"x_max":633,"o":"m 420 546 l 453 712 l 633 712 l 600 546 l 420 546 m 547 -224 q 269 -258 398 -258 q -27 7 -80 -258 q 372 305 33 305 l 403 461 l 583 461 l 523 163 l 343 163 q 139 7 170 163 q 298 -115 115 -115 q 576 -81 427 -115 l 547 -224 z "},"¡":{"ha":383,"x_min":-46,"x_max":328,"o":"m -46 -258 l 98 461 l 277 461 l 134 -258 l -46 -258 m 115 546 l 148 712 l 328 712 l 294 546 l 115 546 z "},"¬":{"ha":736,"x_min":85,"x_max":714,"o":"m 114 712 l 714 712 l 660 441 l 517 441 l 543 570 l 85 570 l 114 712 z "},"ƒ":{"ha":710,"x_min":-114,"x_max":828,"o":"m 800 827 q 751 832 774 832 q 595 726 644 832 l 566 665 l 715 665 l 660 522 l 517 522 l 299 -14 q -60 -260 200 -260 q -114 -258 -86 -260 l -85 -115 q -37 -120 -60 -120 q 119 -14 71 -120 l 338 522 l 209 522 l 264 665 l 387 665 l 415 726 q 774 972 514 972 q 828 970 800 972 l 800 827 z "},"«":{"ha":732,"x_min":9,"x_max":724,"o":"m 313 356 l 539 610 l 724 610 l 498 356 l 622 102 l 437 102 l 313 356 m 9 356 l 235 610 l 419 610 l 193 356 l 317 102 l 133 102 l 9 356 z "},"»":{"ha":732,"x_min":-42,"x_max":673,"o":"m 142 102 l -42 102 l 184 356 l 60 610 l 244 610 l 368 356 l 142 102 m 447 102 l 262 102 l 488 356 l 364 610 l 549 610 l 673 356 l 447 102 z "},"…":{"ha":994,"x_min":-28,"x_max":863,"o":"m 184 166 l 151 0 l -28 0 l 5 166 l 184 166 m 524 166 l 490 0 l 311 0 l 344 166 l 524 166 m 863 166 l 829 0 l 650 0 l 683 166 l 863 166 z "}," ":{"ha":338,"x_min":0,"x_max":0,"o":""},"À":{"ha":1059,"x_min":-79,"x_max":946,"o":"m 112 0 l -79 0 l 526 970 l 720 970 l 946 0 l 760 0 l 702 264 l 380 264 l 473 420 l 668 420 l 588 785 l 112 0 m 696 1052 l 545 1052 l 418 1227 l 634 1227 l 696 1052 z "},"Ã":{"ha":1059,"x_min":-79,"x_max":946,"o":"m 112 0 l -79 0 l 526 970 l 720 970 l 946 0 l 760 0 l 702 264 l 380 264 l 473 420 l 668 420 l 588 785 l 112 0 m 492 1196 q 587 1227 539 1227 q 658 1210 622 1227 q 732 1192 694 1192 q 837 1223 783 1192 l 808 1081 q 714 1050 762 1050 q 643 1067 679 1050 q 569 1085 607 1085 q 464 1054 518 1085 l 492 1196 z "},"Õ":{"ha":1102,"x_min":-8,"x_max":1133,"o":"m 256 488 q 488 149 188 149 q 849 488 781 149 q 623 821 916 821 q 256 488 322 821 m 68 484 q 654 977 167 977 q 1035 484 1133 977 q 457 -7 937 -7 q 68 484 -8 -7 m 514 1196 q 608 1227 561 1227 q 680 1210 644 1227 q 753 1192 715 1192 q 859 1223 804 1192 l 830 1081 q 736 1050 783 1050 q 665 1067 701 1050 q 591 1085 629 1085 q 486 1054 540 1085 l 514 1196 z "},"Œ":{"ha":1502,"x_min":-7,"x_max":1505,"o":"m 256 488 q 490 156 189 156 q 842 488 776 156 q 621 814 907 814 q 256 488 321 814 m 68 484 q 652 970 165 970 l 1505 970 l 1474 814 l 999 814 q 1045 570 1059 738 l 1401 570 l 1370 414 l 1014 414 q 873 156 967 250 l 1352 156 l 1321 0 l 458 0 q 68 484 -7 0 z "},"œ":{"ha":1255,"x_min":-45,"x_max":1254,"o":"m 328 136 q 538 359 494 136 q 416 576 582 576 q 206 359 250 576 q 328 136 161 136 m 730 418 l 909 418 q 1037 494 1021 418 q 922 571 1052 571 q 730 418 772 571 m 585 119 q 299 -6 473 -6 q 26 356 -45 -6 q 444 719 98 719 q 677 597 614 719 q 950 712 785 712 q 1211 499 1254 712 q 882 286 1168 286 l 703 286 q 862 142 675 142 q 1129 231 1004 142 l 1101 88 q 820 0 989 0 q 585 119 649 0 z "},"–":{"ha":814,"x_min":28,"x_max":735,"o":"m 735 427 l 707 285 l 28 285 l 57 427 l 735 427 z "},"—":{"ha":1153,"x_min":28,"x_max":1074,"o":"m 1074 427 l 1046 285 l 28 285 l 57 427 l 1074 427 z "},"“":{"ha":627,"x_min":73,"x_max":691,"o":"m 691 970 l 530 675 l 364 675 l 525 970 l 691 970 m 399 970 l 239 675 l 73 675 l 233 970 l 399 970 z "},"”":{"ha":627,"x_min":73,"x_max":691,"o":"m 691 970 l 530 675 l 364 675 l 525 970 l 691 970 m 399 970 l 239 675 l 73 675 l 233 970 l 399 970 z "},"‘":{"ha":336,"x_min":73,"x_max":399,"o":"m 399 970 l 239 675 l 73 675 l 233 970 l 399 970 z "},"’":{"ha":336,"x_min":73,"x_max":399,"o":"m 399 970 l 239 675 l 73 675 l 233 970 l 399 970 z "},"÷":{"ha":668,"x_min":28,"x_max":589,"o":"m 589 427 l 561 285 l 28 285 l 57 427 l 589 427 m 360 231 l 334 102 l 182 102 l 208 231 l 360 231 m 436 610 l 410 481 l 258 481 l 283 610 l 436 610 z "},"ÿ":{"ha":838,"x_min":-12,"x_max":799,"o":"m 525 240 q 194 0 393 0 q 35 231 -12 0 l 131 712 l 311 712 l 214 229 q 294 145 197 145 q 551 371 422 145 l 619 712 l 799 712 l 656 0 q 223 -258 605 -258 q -3 -224 92 -258 l 25 -81 q 253 -115 122 -115 q 477 0 454 -115 l 525 240 m 705 970 l 679 841 l 533 841 l 559 970 l 705 970 m 474 970 l 448 841 l 302 841 l 328 970 l 474 970 z "},"Ÿ":{"ha":882,"x_min":115,"x_max":1023,"o":"m 115 970 l 301 970 l 480 503 l 830 970 l 1023 970 l 541 339 l 473 0 l 293 0 l 361 339 l 115 970 m 811 1227 l 785 1099 l 640 1099 l 665 1227 l 811 1227 m 581 1227 l 555 1099 l 409 1099 l 435 1227 l 581 1227 z "},"¤":{"ha":772,"x_min":-5,"x_max":728,"o":"m 153 513 l 91 594 l 180 670 l 248 588 q 421 634 330 634 q 565 588 505 634 l 668 670 l 728 594 l 631 513 q 639 356 659 456 q 562 199 621 262 l 632 117 l 543 41 l 472 125 q 306 84 391 84 q 149 125 222 84 l 54 41 l -5 117 l 90 199 q 83 356 66 269 q 153 513 102 449 m 194 359 q 327 192 161 192 q 526 359 493 192 q 393 524 559 524 q 194 359 227 524 z "},"‹":{"ha":427,"x_min":9,"x_max":419,"o":"m 9 356 l 235 610 l 419 610 l 193 356 l 317 102 l 133 102 l 9 356 z "},"›":{"ha":427,"x_min":-42,"x_max":368,"o":"m 142 102 l -42 102 l 184 356 l 60 610 l 244 610 l 368 356 l 142 102 z "},"‡":{"ha":709,"x_min":-62,"x_max":721,"o":"m 542 970 l 490 712 l 721 712 l 692 570 l 462 570 l 376 142 l 607 142 l 578 0 l 348 0 l 296 -258 l 117 -258 l 168 0 l -62 0 l -34 142 l 197 142 l 282 570 l 52 570 l 80 712 l 311 712 l 362 970 l 542 970 z "},"·":{"ha":305,"x_min":26,"x_max":229,"o":"m 43 356 q 144 441 60 441 q 212 356 229 441 q 111 271 195 271 q 43 356 26 271 z "},"‚":{"ha":295,"x_min":-96,"x_max":190,"o":"m 190 125 l 29 -170 l -96 -170 l 64 125 l 190 125 z "},"„":{"ha":627,"x_min":-96,"x_max":522,"o":"m 522 125 l 361 -170 l 195 -170 l 356 125 l 522 125 m 231 125 l 70 -170 l -96 -170 l 64 125 l 231 125 z "},"‰":{"ha":1513,"x_min":-28,"x_max":1432,"o":"m 151 0 l -28 0 l 855 970 l 1035 970 l 151 0 m 255 774 q 329 675 235 675 q 439 774 420 675 q 366 859 456 859 q 255 774 272 859 m 126 773 q 389 977 167 977 q 568 773 609 977 q 305 557 525 557 q 126 773 83 557 m 1076 204 q 1152 111 1058 111 q 1261 204 1242 111 q 1188 295 1279 295 q 1076 204 1095 295 m 947 203 q 1212 413 989 413 q 1390 203 1432 413 q 1128 -7 1348 -7 q 947 203 905 -7 m 582 204 q 657 111 564 111 q 766 204 748 111 q 694 295 785 295 q 582 204 600 295 m 453 203 q 718 413 495 413 q 895 203 937 413 q 633 -7 853 -7 q 453 203 411 -7 z "},"Â":{"ha":1059,"x_min":-79,"x_max":946,"o":"m 112 0 l -79 0 l 526 970 l 720 970 l 946 0 l 760 0 l 702 264 l 380 264 l 473 420 l 668 420 l 588 785 l 112 0 m 610 1227 l 712 1227 l 795 1051 l 673 1051 l 644 1139 l 578 1051 l 456 1051 l 610 1227 z "},"Ê":{"ha":840,"x_min":5,"x_max":863,"o":"m 863 970 l 832 815 l 347 815 l 298 571 l 760 571 l 728 410 l 264 410 l 213 156 l 710 156 l 679 0 l 5 0 l 199 970 l 863 970 m 513 1227 l 614 1227 l 698 1051 l 576 1051 l 546 1139 l 481 1051 l 359 1051 l 513 1227 z "},"Á":{"ha":1059,"x_min":-79,"x_max":946,"o":"m 112 0 l -79 0 l 526 970 l 720 970 l 946 0 l 760 0 l 702 264 l 380 264 l 473 420 l 668 420 l 588 785 l 112 0 m 654 1227 l 871 1227 l 673 1052 l 522 1052 l 654 1227 z "},"Ë":{"ha":840,"x_min":5,"x_max":863,"o":"m 863 970 l 832 815 l 347 815 l 298 571 l 760 571 l 728 410 l 264 410 l 213 156 l 710 156 l 679 0 l 5 0 l 199 970 l 863 970 m 751 1227 l 726 1099 l 580 1099 l 606 1227 l 751 1227 m 521 1227 l 495 1099 l 349 1099 l 375 1227 l 521 1227 z "},"È":{"ha":840,"x_min":5,"x_max":863,"o":"m 863 970 l 832 815 l 347 815 l 298 571 l 760 571 l 728 410 l 264 410 l 213 156 l 710 156 l 679 0 l 5 0 l 199 970 l 863 970 m 633 1052 l 481 1052 l 354 1227 l 570 1227 l 633 1052 z "},"Í":{"ha":383,"x_min":5,"x_max":539,"o":"m 379 970 l 185 0 l 5 0 l 199 970 l 379 970 m 323 1227 l 539 1227 l 342 1052 l 190 1052 l 323 1227 z "},"Î":{"ha":383,"x_min":6,"x_max":471,"o":"m 380 970 l 186 0 l 6 0 l 200 970 l 380 970 m 286 1227 l 388 1227 l 471 1051 l 349 1051 l 319 1139 l 254 1051 l 132 1051 l 286 1227 z "},"Ï":{"ha":383,"x_min":5,"x_max":525,"o":"m 379 970 l 185 0 l 5 0 l 199 970 l 379 970 m 525 1227 l 499 1099 l 353 1099 l 379 1227 l 525 1227 m 294 1227 l 269 1099 l 123 1099 l 149 1227 l 294 1227 z "},"Ì":{"ha":383,"x_min":5,"x_max":399,"o":"m 379 970 l 185 0 l 5 0 l 199 970 l 379 970 m 399 1052 l 248 1052 l 121 1227 l 337 1227 l 399 1052 z "},"Ó":{"ha":1102,"x_min":-8,"x_max":1133,"o":"m 256 488 q 488 149 188 149 q 849 488 781 149 q 623 821 916 821 q 256 488 322 821 m 68 484 q 654 977 167 977 q 1035 484 1133 977 q 457 -7 937 -7 q 68 484 -8 -7 m 682 1227 l 899 1227 l 701 1052 l 549 1052 l 682 1227 z "},"Ô":{"ha":1102,"x_min":-8,"x_max":1133,"o":"m 256 488 q 488 149 188 149 q 849 488 781 149 q 623 821 916 821 q 256 488 322 821 m 68 484 q 654 977 167 977 q 1035 484 1133 977 q 457 -7 937 -7 q 68 484 -8 -7 m 639 1227 l 741 1227 l 824 1051 l 702 1051 l 672 1139 l 607 1051 l 485 1051 l 639 1227 z "},"Ò":{"ha":1102,"x_min":-8,"x_max":1133,"o":"m 256 488 q 488 149 188 149 q 849 488 781 149 q 623 821 916 821 q 256 488 322 821 m 68 484 q 654 977 167 977 q 1035 484 1133 977 q 457 -7 937 -7 q 68 484 -8 -7 m 759 1052 l 607 1052 l 480 1227 l 696 1227 l 759 1052 z "},"Ú":{"ha":1038,"x_min":4,"x_max":1034,"o":"m 81 381 l 199 970 l 379 970 l 261 381 q 452 149 215 149 q 736 381 690 149 l 854 970 l 1034 970 l 916 381 q 421 -7 838 -7 q 81 381 4 -7 m 644 1227 l 860 1227 l 663 1052 l 511 1052 l 644 1227 z "},"Û":{"ha":1038,"x_min":4,"x_max":1034,"o":"m 81 381 l 199 970 l 379 970 l 261 381 q 452 149 215 149 q 736 381 690 149 l 854 970 l 1034 970 l 916 381 q 421 -7 838 -7 q 81 381 4 -7 m 606 1227 l 708 1227 l 791 1051 l 669 1051 l 640 1139 l 574 1051 l 452 1051 l 606 1227 z "},"Ù":{"ha":1038,"x_min":4,"x_max":1034,"o":"m 81 381 l 199 970 l 379 970 l 261 381 q 452 149 215 149 q 736 381 690 149 l 854 970 l 1034 970 l 916 381 q 421 -7 838 -7 q 81 381 4 -7 m 720 1052 l 568 1052 l 441 1227 l 657 1227 l 720 1052 z "},"ˆ":{"ha":475,"x_min":130,"x_max":469,"o":"m 284 970 l 386 970 l 469 793 l 347 793 l 317 882 l 252 793 l 130 793 l 284 970 z "},"˜":{"ha":475,"x_min":131,"x_max":504,"o":"m 159 939 q 254 970 206 970 q 325 952 289 970 q 399 935 361 935 q 504 966 450 935 l 475 823 q 381 792 429 792 q 310 810 346 792 q 236 827 274 827 q 131 796 185 827 l 159 939 z "},"¯":{"ha":475,"x_min":137,"x_max":505,"o":"m 505 970 l 476 827 l 137 827 l 165 970 l 505 970 z "},"¸":{"ha":466,"x_min":-79,"x_max":292,"o":"m -61 -165 q 79 -199 5 -199 q 159 -162 152 -199 q 109 -132 165 -132 l -16 -132 l 110 51 l 222 51 l 146 -52 q 270 -162 292 -52 q 61 -286 245 -286 q -79 -252 -12 -286 l -61 -165 z "},"̦":{"ha":315,"x_min":-131,"x_max":189,"o":"m 189 -68 l 49 -258 l -131 -258 l 9 -68 l 189 -68 z "},"Š":{"ha":868,"x_min":-3,"x_max":873,"o":"m -3 41 l 29 203 q 348 149 164 149 q 601 298 571 149 q 486 407 623 407 l 334 407 q 90 678 36 407 q 574 977 150 977 q 873 929 736 977 l 840 766 q 543 821 705 821 q 270 678 298 821 q 366 570 248 570 l 518 570 q 781 298 835 570 q 317 -7 720 -7 q -3 41 133 -7 m 403 1227 l 525 1227 l 555 1139 l 620 1227 l 742 1227 l 588 1051 l 486 1051 l 403 1227 z "},"š":{"ha":695,"x_min":-5,"x_max":660,"o":"m -5 34 l 25 183 q 290 136 134 136 q 420 210 406 136 q 356 278 434 278 l 227 278 q 54 495 10 278 q 415 719 98 719 q 660 678 549 719 l 630 529 q 382 576 521 576 q 221 502 236 576 q 292 434 208 434 l 408 434 q 602 217 645 434 q 254 -7 557 -7 q -5 34 106 -7 m 281 970 l 403 970 l 433 882 l 498 970 l 620 970 l 466 793 l 364 793 l 281 970 z "},"¦":{"ha":383,"x_min":-46,"x_max":378,"o":"m 233 237 l 134 -258 l -46 -258 l 53 237 l 233 237 m 378 970 l 279 475 l 100 475 l 199 970 l 378 970 z "},"Ð":{"ha":987,"x_min":-47,"x_max":1034,"o":"m 119 570 l 199 970 l 552 970 q 942 511 1034 970 q 358 0 840 0 l 5 0 l 88 414 l -47 414 l -16 570 l 119 570 m 299 570 l 492 570 l 461 414 l 268 414 l 216 156 l 389 156 q 762 511 691 156 q 521 814 823 814 l 348 814 l 299 570 z "},"ð":{"ha":800,"x_min":-47,"x_max":799,"o":"m 561 438 q 570 543 574 503 q 418 576 515 576 q 205 366 247 576 q 330 136 159 136 q 561 438 500 136 m 676 860 q 741 441 799 729 q 301 -7 652 -7 q 28 366 -47 -7 q 391 712 97 712 q 573 651 511 712 q 482 785 549 741 l 312 720 l 328 800 l 384 822 q 314 827 351 827 l 174 827 l 203 970 l 344 970 q 612 910 513 970 l 767 970 l 751 889 l 676 860 z "},"Ý":{"ha":882,"x_min":115,"x_max":1023,"o":"m 115 970 l 301 970 l 480 503 l 830 970 l 1023 970 l 541 339 l 473 0 l 293 0 l 361 339 l 115 970 m 603 1227 l 819 1227 l 622 1052 l 470 1052 l 603 1227 z "},"ý":{"ha":838,"x_min":-12,"x_max":799,"o":"m 525 240 q 194 0 393 0 q 35 231 -12 0 l 131 712 l 311 712 l 214 229 q 294 145 197 145 q 551 371 422 145 l 619 712 l 799 712 l 656 0 q 223 -258 605 -258 q -3 -224 92 -258 l 25 -81 q 253 -115 122 -115 q 477 0 454 -115 l 525 240 m 509 970 l 726 970 l 528 794 l 376 794 l 509 970 z "},"Þ":{"ha":867,"x_min":5,"x_max":888,"o":"m 5 0 l 199 970 l 385 970 l 343 761 l 612 761 q 840 515 888 761 q 370 163 781 225 l 376 323 q 650 509 622 367 q 569 603 669 603 l 306 603 l 185 0 l 5 0 z "},"þ":{"ha":799,"x_min":-63,"x_max":794,"o":"m 277 543 q 558 712 391 712 q 728 384 794 712 q 304 0 652 0 q 170 6 238 0 l 117 -258 l -63 -258 l 182 970 l 362 970 l 277 543 m 246 391 l 201 165 q 340 145 259 145 q 551 382 503 145 q 467 563 587 563 q 246 391 355 563 z "},"­":{"ha":644,"x_min":28,"x_max":566,"o":"m 566 427 l 537 285 l 28 285 l 57 427 l 566 427 z "},"×":{"ha":596,"x_min":17,"x_max":528,"o":"m 172 356 l 68 486 l 189 586 l 293 456 l 448 586 l 528 486 l 373 356 l 477 227 l 356 126 l 253 256 l 97 126 l 17 227 l 172 356 z "},"¹":{"ha":222,"x_min":85,"x_max":313,"o":"m 85 481 l 155 828 l 103 828 l 116 892 l 313 967 l 216 481 l 85 481 z "},"²":{"ha":400,"x_min":34,"x_max":464,"o":"m 34 481 l 58 600 q 300 807 283 718 q 248 851 309 851 q 114 814 187 851 l 138 936 q 272 970 211 970 q 431 807 464 970 q 222 600 410 702 l 390 600 l 366 481 l 34 481 z "},"³":{"ha":392,"x_min":37,"x_max":456,"o":"m 127 949 q 267 970 199 970 q 427 825 456 970 q 343 728 413 758 q 388 631 401 699 q 169 479 357 479 q 37 499 101 479 l 62 621 q 193 597 125 597 q 258 631 251 597 q 235 675 267 675 l 124 675 l 145 780 l 255 780 q 296 825 288 780 q 243 852 302 852 q 103 827 176 852 l 127 949 z "},"½":{"ha":978,"x_min":-28,"x_max":911,"o":"m 138 0 l -28 0 l 725 970 l 891 970 l 138 0 m 481 0 l 505 119 q 749 326 731 236 q 696 370 758 370 q 562 332 635 370 l 586 454 q 720 488 659 488 q 879 326 911 488 q 669 119 858 220 l 838 119 l 814 0 l 481 0 m 119 481 l 189 828 l 137 828 l 150 892 l 347 967 l 250 481 l 119 481 z "},"¼":{"ha":983,"x_min":-28,"x_max":916,"o":"m 138 0 l -28 0 l 725 970 l 891 970 l 138 0 m 589 468 q 728 488 661 488 q 887 343 916 488 q 804 246 874 277 q 848 149 862 217 q 630 -3 818 -3 q 498 18 562 -3 l 523 140 q 654 115 586 115 q 718 149 711 115 q 695 194 726 194 l 584 194 l 605 298 l 715 298 q 756 343 747 298 q 705 370 762 370 q 564 346 637 370 l 589 468 m 119 481 l 189 828 l 137 828 l 150 892 l 347 967 l 250 481 l 119 481 z "},"¾":{"ha":1010,"x_min":33,"x_max":953,"o":"m 199 0 l 33 0 l 787 970 l 953 970 l 199 0 m 796 0 l 673 0 l 693 102 l 454 102 l 478 220 l 679 484 l 809 484 l 612 220 l 717 220 l 747 372 l 871 372 l 840 220 l 885 194 l 867 102 l 817 102 l 796 0 m 161 949 q 301 970 233 970 q 460 825 489 970 q 377 728 447 758 q 421 631 435 699 q 203 479 391 479 q 71 499 135 479 l 96 621 q 227 597 159 597 q 290 631 283 597 q 268 675 299 675 l 157 675 l 178 780 l 288 780 q 329 825 320 780 q 277 852 334 852 q 137 827 210 852 l 161 949 z "},"Ł":{"ha":836,"x_min":60,"x_max":703,"o":"m 176 347 l 60 273 l 91 429 l 208 503 l 301 970 l 481 970 l 414 635 l 603 757 l 572 601 l 382 479 l 318 156 l 703 156 l 672 0 l 107 0 l 176 347 z "},"ł":{"ha":383,"x_min":-42,"x_max":429,"o":"m 75 349 l -42 273 l -11 429 l 106 505 l 199 970 l 379 970 l 313 637 l 429 713 l 398 557 l 281 481 l 185 0 l 5 0 l 75 349 z "},"Ž":{"ha":848,"x_min":-12,"x_max":901,"o":"m 901 970 l 870 814 l 222 156 l 739 156 l 707 0 l -12 0 l 20 156 l 676 814 l 165 814 l 196 970 l 901 970 m 413 1227 l 535 1227 l 565 1139 l 630 1227 l 752 1227 l 598 1051 l 496 1051 l 413 1227 z "},"ž":{"ha":651,"x_min":-42,"x_max":643,"o":"m 114 712 l 643 712 l 614 570 l 184 136 l 514 136 l 487 0 l -42 0 l -15 136 l 414 570 l 85 570 l 114 712 m 254 970 l 376 970 l 406 882 l 471 970 l 593 970 l 439 793 l 337 793 l 254 970 z "},"≠":{"ha":644,"x_min":-28,"x_max":623,"o":"m 102 170 l 5 170 l 34 312 l 212 312 l 280 400 l 52 400 l 80 543 l 390 543 l 521 712 l 623 712 l 492 543 l 589 543 l 560 400 l 382 400 l 314 312 l 543 312 l 514 170 l 204 170 l 73 0 l -28 0 l 102 170 z "},"∞":{"ha":1126,"x_min":-4,"x_max":1080,"o":"m 43 356 q 340 590 90 590 q 560 468 476 590 q 829 590 693 590 q 1033 356 1080 590 q 735 122 986 122 q 515 244 600 122 q 247 122 382 122 q 43 356 -4 122 m 873 356 q 799 441 890 441 q 619 356 724 441 q 765 271 690 271 q 873 356 857 271 m 202 356 q 277 271 185 271 q 443 356 351 271 q 311 441 385 441 q 202 356 219 441 z "},"≤":{"ha":644,"x_min":-28,"x_max":625,"o":"m 509 142 l 480 0 l -28 0 l 0 142 l 509 142 m 53 407 l 73 509 l 625 726 l 595 576 l 249 460 l 548 339 l 518 190 l 53 407 z "},"≥":{"ha":644,"x_min":-28,"x_max":582,"o":"m 509 142 l 480 0 l -28 0 l 0 142 l 509 142 m 9 190 l 39 339 l 387 460 l 87 576 l 117 726 l 582 509 l 562 407 l 9 190 z "},"∂":{"ha":877,"x_min":3,"x_max":975,"o":"m 609 834 q 294 739 435 834 l 326 895 q 652 977 486 977 q 910 654 975 977 q 854 475 894 574 q 269 -7 662 -7 q 45 204 3 -7 q 73 292 54 244 q 561 588 191 588 l 720 588 q 747 674 740 636 q 609 834 779 834 m 667 434 l 509 434 q 252 292 317 434 q 231 231 237 257 q 320 136 212 136 q 667 434 524 136 z "},"∑":{"ha":916,"x_min":-80,"x_max":945,"o":"m 165 970 l 945 970 l 914 814 l 317 814 l 604 380 l 148 -102 l 731 -102 l 700 -258 l -80 -258 l -49 -102 l 417 387 l 134 814 l 165 970 z "},"∏":{"ha":1173,"x_min":-46,"x_max":1169,"o":"m 1169 970 l 924 -258 l 751 -258 l 965 814 l 348 814 l 134 -258 l -46 -258 l 199 970 l 1169 970 z "},"π":{"ha":977,"x_min":9,"x_max":982,"o":"m 38 671 q 243 712 141 712 l 982 712 l 954 570 l 787 570 l 717 217 q 813 141 702 141 q 841 142 826 141 l 812 0 q 748 -3 778 -3 q 537 217 493 -3 l 608 570 l 367 570 l 253 -1 l 73 -1 l 187 570 q 9 529 113 570 l 38 671 z "},"∫":{"ha":399,"x_min":-125,"x_max":528,"o":"m 500 983 q 340 802 376 983 q 334 766 336 785 l 250 217 q 243 180 246 198 q -125 -142 178 -142 l -96 0 q 64 181 28 0 q 70 217 67 198 l 154 766 q 161 803 157 785 q 528 1126 225 1126 l 500 983 z "},"Ω":{"ha":1092,"x_min":-5,"x_max":1111,"o":"m -5 0 l 26 156 l 206 156 q 94 543 42 285 q 646 983 182 983 q 1023 543 1111 983 q 755 156 971 285 l 935 156 l 904 0 l 531 0 l 562 156 q 843 543 791 285 q 615 827 900 827 q 273 543 330 827 q 399 156 222 285 l 368 0 l -5 0 z "},"√":{"ha":929,"x_min":68,"x_max":1084,"o":"m 97 712 l 358 712 l 411 234 l 915 1257 l 1084 1257 l 439 -5 l 286 -5 l 218 570 l 68 570 l 97 712 z "},"≈":{"ha":712,"x_min":5,"x_max":656,"o":"m 610 312 l 582 170 q 426 136 500 136 q 287 170 352 136 q 151 203 222 203 q 5 170 81 203 l 34 312 q 190 346 117 346 q 329 312 264 346 q 465 278 394 278 q 610 312 535 278 m 656 543 l 628 400 q 472 366 546 366 q 333 400 398 366 q 197 434 268 434 q 52 400 127 434 l 80 543 q 236 576 163 576 q 375 543 310 576 q 511 509 440 509 q 656 543 581 509 z "},"Δ":{"ha":1059,"x_min":-79,"x_max":946,"o":"m 207 156 l 726 156 l 588 785 l 207 156 m -79 0 l 526 970 l 720 970 l 946 0 l -79 0 z "},"◊":{"ha":736,"x_min":35,"x_max":703,"o":"m 382 970 l 549 970 l 703 485 l 355 0 l 189 0 l 35 485 l 382 970 m 214 485 l 303 156 l 523 485 l 435 814 l 214 485 z "},"⁄":{"ha":861,"x_min":-28,"x_max":891,"o":"m 138 0 l -28 0 l 725 970 l 891 970 l 138 0 z "},"ﬁ":{"ha":760,"x_min":-136,"x_max":732,"o":"m 138 747 q 512 1019 192 1019 q 732 971 627 1019 l 704 829 q 496 876 609 876 q 318 752 343 876 l 311 712 l 722 712 l 579 0 l 399 0 l 513 570 l 282 570 l 179 54 q -15 -297 136 -161 l -136 -199 q -1 54 -33 -107 l 138 747 z "},"ﬂ":{"ha":781,"x_min":-136,"x_max":793,"o":"m 138 747 q 546 1019 192 1019 q 793 971 681 1019 l 600 0 l 420 0 l 592 864 q 503 876 561 876 q 318 752 343 876 l 311 712 l 456 712 l 428 570 l 282 570 l 179 54 q -15 -297 136 -161 l -136 -199 q -1 54 -33 -107 l 138 747 z "},"":{"ha":1169,"x_min":68,"x_max":1101,"o":"m 801 225 l 801 294 l 628 303 l 628 669 l 714 669 l 749 398 l 827 398 l 801 745 l 639 745 l 585 719 l 531 745 l 368 745 l 342 398 l 420 398 l 454 669 l 541 669 l 541 303 l 368 294 l 368 225 l 801 225 m 362 902 l 387 962 l 448 937 l 484 991 l 538 956 l 585 1001 l 631 956 l 686 991 l 722 937 l 782 962 l 807 902 l 871 915 l 884 850 l 950 850 l 950 785 l 1014 772 l 1001 708 l 1061 683 l 1037 622 l 1092 587 l 1055 531 l 1101 486 l 1055 439 l 1092 383 l 1036 348 l 1061 287 l 1001 262 l 1014 198 l 950 185 l 950 120 l 884 120 l 871 55 l 807 68 l 782 7 l 722 33 l 686 -22 l 631 14 l 585 -31 l 538 14 l 484 -22 l 448 33 l 387 7 l 362 68 l 298 55 l 285 120 l 219 120 l 219 185 l 155 198 l 168 262 l 106 288 l 132 348 l 77 384 l 115 439 l 68 486 l 115 531 l 77 587 l 133 623 l 108 683 l 168 708 l 155 772 l 219 785 l 219 850 l 285 850 l 298 915 l 362 902 m 585 913 q 281 788 407 913 q 156 486 156 663 q 281 182 156 307 q 585 56 407 56 q 888 182 762 56 q 1013 486 1013 307 q 888 788 1013 663 q 585 913 762 913 m 585 877 q 861 762 747 877 q 976 486 976 647 q 861 208 976 323 q 585 93 747 93 q 308 208 422 93 q 193 486 193 323 q 308 762 193 647 q 585 877 422 877 z "},"ı":{"ha":349,"x_min":-12,"x_max":311,"o":"m 311 712 l 168 0 l -12 0 l 131 712 l 311 712 z "},"˘":{"ha":536,"x_min":126,"x_max":566,"o":"m 165 970 l 284 970 q 347 875 265 875 q 447 970 428 875 l 566 970 q 326 773 526 773 q 165 970 126 773 z "},"˙":{"ha":295,"x_min":136,"x_max":325,"o":"m 325 970 l 295 821 l 136 821 l 165 970 l 325 970 z "},"˚":{"ha":442,"x_min":127,"x_max":491,"o":"m 217 924 q 292 831 199 831 q 401 924 383 831 q 329 1015 420 1015 q 217 924 235 1015 m 156 923 q 339 1065 184 1065 q 463 923 491 1065 q 282 781 434 781 q 156 923 127 781 z "},"˝":{"ha":725,"x_min":130,"x_max":755,"o":"m 263 970 l 479 970 l 282 794 l 130 794 l 263 970 m 538 970 l 755 970 l 557 794 l 406 794 l 538 970 z "},"˛":{"ha":425,"x_min":-86,"x_max":260,"o":"m 260 0 q 73 -134 86 -65 q 121 -180 63 -180 q 216 -167 178 -180 l 195 -275 q 91 -289 151 -289 q -58 -151 -86 -289 q 67 0 -41 -62 l 260 0 z "},"ˇ":{"ha":475,"x_min":165,"x_max":505,"o":"m 165 970 l 288 970 l 317 882 l 382 970 l 505 970 l 351 793 l 249 793 l 165 970 z "},"€":{"ha":939,"x_min":-30,"x_max":939,"o":"m 758 34 q 479 -7 625 -7 q 71 498 -30 -7 q 675 977 167 977 q 939 936 821 977 l 906 773 q 658 821 790 821 q 298 666 374 821 l 754 666 l 726 524 l 256 524 l 246 476 l 716 476 l 688 334 l 231 334 q 524 149 233 149 q 791 197 656 149 l 758 34 z "},"Ż":{"ha":848,"x_min":-12,"x_max":901,"o":"m 901 970 l 870 814 l 222 156 l 739 156 l 707 0 l -12 0 l 20 156 l 676 814 l 165 814 l 196 970 l 901 970 m 663 1227 l 633 1078 l 473 1078 l 503 1227 l 663 1227 z "},"ż":{"ha":651,"x_min":-42,"x_max":643,"o":"m 114 712 l 643 712 l 614 570 l 184 136 l 514 136 l 487 0 l -42 0 l -15 136 l 414 570 l 85 570 l 114 712 m 503 970 l 473 821 l 314 821 l 344 970 l 503 970 z "},"Ź":{"ha":848,"x_min":-12,"x_max":901,"o":"m 901 970 l 870 814 l 222 156 l 739 156 l 707 0 l -12 0 l 20 156 l 676 814 l 165 814 l 196 970 l 901 970 m 569 1227 l 785 1227 l 588 1052 l 436 1052 l 569 1227 z "},"ź":{"ha":651,"x_min":-42,"x_max":643,"o":"m 114 712 l 643 712 l 614 570 l 184 136 l 514 136 l 487 0 l -42 0 l -15 136 l 414 570 l 85 570 l 114 712 m 416 970 l 633 970 l 435 794 l 283 794 l 416 970 z "},"Ą":{"ha":1059,"x_min":-79,"x_max":946,"o":"m 112 0 l -79 0 l 526 970 l 720 970 l 946 0 q 758 -134 772 -65 q 806 -180 749 -180 q 902 -167 864 -180 l 880 -275 q 777 -289 836 -289 q 627 -151 600 -289 q 760 0 645 -62 l 702 264 l 380 264 l 473 420 l 668 420 l 588 785 l 112 0 z "},"ą":{"ha":805,"x_min":-45,"x_max":760,"o":"m 554 551 q 418 567 513 567 q 202 348 245 567 q 269 149 162 149 q 511 335 400 149 l 554 551 m 465 0 l 481 183 q 204 0 364 0 q 24 347 -45 0 q 467 712 97 712 q 760 683 591 712 l 624 0 q 435 -134 450 -65 q 484 -180 427 -180 q 580 -167 542 -180 l 558 -275 q 454 -289 514 -289 q 304 -151 277 -289 q 465 0 323 -62 z "},"Ć":{"ha":943,"x_min":-30,"x_max":964,"o":"m 787 41 q 492 -7 652 -7 q 71 498 -30 -7 q 689 977 167 977 q 964 929 848 977 l 932 766 q 671 821 817 821 q 258 498 322 821 q 537 149 188 149 q 819 203 683 149 l 787 41 m 623 1227 l 840 1227 l 642 1052 l 490 1052 l 623 1227 z "},"ć":{"ha":637,"x_min":-56,"x_max":646,"o":"m 518 88 q 283 0 412 0 q 17 363 -56 0 q 453 712 87 712 q 639 692 555 712 l 610 549 q 438 570 526 570 q 197 363 238 570 q 326 142 153 142 q 547 231 441 142 l 518 88 m 430 970 l 646 970 l 449 794 l 297 794 l 430 970 z "},"Ń":{"ha":1068,"x_min":5,"x_max":1064,"o":"m 5 0 l 199 970 l 379 970 l 753 277 l 891 970 l 1064 970 l 870 0 l 690 0 l 320 708 l 178 0 l 5 0 m 687 1227 l 903 1227 l 706 1052 l 554 1052 l 687 1227 z "},"ń":{"ha":838,"x_min":-12,"x_max":799,"o":"m -12 0 l 131 712 l 290 712 l 262 472 q 593 712 395 712 q 753 481 799 712 l 656 0 l 477 0 l 573 483 q 493 567 590 567 q 237 341 365 567 l 168 0 l -12 0 m 509 970 l 726 970 l 528 794 l 376 794 l 509 970 z "},"Ś":{"ha":868,"x_min":-3,"x_max":873,"o":"m -3 41 l 29 203 q 348 149 164 149 q 601 298 571 149 q 486 407 623 407 l 334 407 q 90 678 36 407 q 574 977 150 977 q 873 929 736 977 l 840 766 q 543 821 705 821 q 270 678 298 821 q 366 570 248 570 l 518 570 q 781 298 835 570 q 317 -7 720 -7 q -3 41 133 -7 m 566 1227 l 782 1227 l 585 1052 l 433 1052 l 566 1227 z "},"ś":{"ha":695,"x_min":-5,"x_max":660,"o":"m -5 34 l 25 183 q 290 136 134 136 q 420 210 406 136 q 356 278 434 278 l 227 278 q 54 495 10 278 q 415 719 98 719 q 660 678 549 719 l 630 529 q 382 576 521 576 q 221 502 236 576 q 292 434 208 434 l 408 434 q 602 217 645 434 q 254 -7 557 -7 q -5 34 106 -7 m 444 970 l 660 970 l 463 794 l 311 794 l 444 970 z "},"Ę":{"ha":840,"x_min":5,"x_max":857,"o":"m 479 0 l 5 0 l 199 970 l 857 970 l 825 815 l 347 815 l 298 571 l 753 571 l 722 410 l 264 410 l 213 156 l 703 156 l 672 0 q 484 -134 498 -65 q 532 -180 475 -180 q 628 -167 590 -180 l 606 -275 q 503 -289 562 -289 q 353 -151 326 -289 q 479 0 371 -62 z "},"ę":{"ha":733,"x_min":-56,"x_max":732,"o":"m 208 418 l 387 418 q 515 494 499 418 q 399 571 530 571 q 208 418 250 571 m 391 7 q 298 0 347 0 q 17 364 -56 0 q 428 712 87 712 q 689 499 732 712 q 359 286 646 286 l 181 286 q 340 142 153 142 q 607 231 481 142 l 572 54 q 372 -134 387 -65 q 421 -180 363 -180 q 517 -167 479 -180 l 495 -275 q 391 -289 451 -289 q 241 -151 214 -289 q 391 7 260 -62 z "},"Č":{"ha":943,"x_min":-30,"x_max":964,"o":"m 787 41 q 492 -7 652 -7 q 71 498 -30 -7 q 689 977 167 977 q 964 929 848 977 l 932 766 q 671 821 817 821 q 258 498 322 821 q 537 149 188 149 q 819 203 683 149 l 787 41 m 500 1227 l 622 1227 l 652 1139 l 717 1227 l 839 1227 l 685 1051 l 583 1051 l 500 1227 z "},"č":{"ha":637,"x_min":-56,"x_max":639,"o":"m 518 88 q 283 0 412 0 q 17 363 -56 0 q 453 712 87 712 q 639 692 555 712 l 610 549 q 438 570 526 570 q 197 363 238 570 q 326 142 153 142 q 547 231 441 142 l 518 88 m 260 970 l 382 970 l 412 882 l 477 970 l 600 970 l 446 793 l 344 793 l 260 970 z "},"Ď":{"ha":1014,"x_min":5,"x_max":1061,"o":"m 416 156 q 789 511 718 156 q 548 814 850 814 l 348 814 l 216 156 l 416 156 m 5 0 l 199 970 l 579 970 q 969 511 1061 970 q 385 0 867 0 l 5 0 m 363 1227 l 485 1227 l 515 1139 l 580 1227 l 702 1227 l 548 1051 l 446 1051 l 363 1227 z "},"ď":{"ha":805,"x_min":-45,"x_max":1154,"o":"m 554 551 q 418 567 513 567 q 202 348 245 567 q 269 149 162 149 q 511 335 400 149 l 554 551 m 624 0 l 465 0 l 481 183 q 204 0 364 0 q 24 347 -45 0 q 467 712 97 712 q 585 707 522 712 l 638 970 l 818 970 l 624 0 m 1154 970 l 993 675 l 827 675 l 987 970 l 1154 970 z "},"Ě":{"ha":840,"x_min":5,"x_max":863,"o":"m 863 970 l 832 815 l 347 815 l 298 571 l 760 571 l 728 410 l 264 410 l 213 156 l 710 156 l 679 0 l 5 0 l 199 970 l 863 970 m 394 1227 l 516 1227 l 546 1139 l 611 1227 l 733 1227 l 579 1051 l 477 1051 l 394 1227 z "},"ě":{"ha":733,"x_min":-56,"x_max":732,"o":"m 428 712 q 689 499 732 712 q 359 286 646 286 l 181 286 q 340 142 153 142 q 607 231 481 142 l 578 88 q 298 0 467 0 q 17 364 -56 0 q 428 712 87 712 m 208 418 l 387 418 q 515 494 499 418 q 399 571 530 571 q 208 418 250 571 m 305 970 l 427 970 l 457 882 l 522 970 l 644 970 l 490 793 l 389 793 l 305 970 z "},"Ň":{"ha":1068,"x_min":5,"x_max":1064,"o":"m 5 0 l 199 970 l 379 970 l 753 277 l 891 970 l 1064 970 l 870 0 l 690 0 l 320 708 l 178 0 l 5 0 m 494 1227 l 616 1227 l 646 1139 l 711 1227 l 833 1227 l 680 1051 l 578 1051 l 494 1227 z "},"ň":{"ha":838,"x_min":-12,"x_max":799,"o":"m -12 0 l 131 712 l 290 712 l 262 472 q 593 712 395 712 q 753 481 799 712 l 656 0 l 477 0 l 573 483 q 493 567 590 567 q 237 341 365 567 l 168 0 l -12 0 m 347 970 l 469 970 l 499 882 l 564 970 l 686 970 l 532 793 l 431 793 l 347 970 z "},"Ř":{"ha":932,"x_min":5,"x_max":937,"o":"m 5 1 l 199 970 l 640 970 q 885 710 937 970 q 595 419 844 505 l 819 0 l 610 0 l 399 422 l 415 505 q 696 705 665 549 q 597 812 718 812 l 351 812 l 189 1 l 5 1 m 396 1227 l 518 1227 l 548 1139 l 613 1227 l 735 1227 l 581 1051 l 479 1051 l 396 1227 z "},"ř":{"ha":495,"x_min":-12,"x_max":549,"o":"m -12 0 l 131 712 l 290 712 l 265 486 q 524 712 386 712 l 494 560 q 237 341 359 560 l 168 0 l -12 0 m 210 970 l 332 970 l 361 882 l 427 970 l 549 970 l 395 793 l 293 793 l 210 970 z "},"Ť":{"ha":736,"x_min":66,"x_max":833,"o":"m 833 970 l 802 814 l 524 814 l 361 0 l 182 0 l 345 814 l 66 814 l 98 970 l 833 970 m 337 1227 l 459 1227 l 489 1139 l 554 1227 l 676 1227 l 522 1051 l 420 1051 l 337 1227 z "},"ť":{"ha":461,"x_min":-12,"x_max":810,"o":"m 154 827 l 287 827 l 291 712 l 456 712 l 428 570 l 282 570 l 216 242 q 283 142 197 142 l 342 142 l 314 0 l 168 0 q 27 192 -12 0 l 154 827 m 810 970 l 649 675 l 483 675 l 644 970 l 810 970 z "},"Ů":{"ha":1038,"x_min":4,"x_max":1034,"o":"m 81 381 l 199 970 l 379 970 l 261 381 q 452 149 215 149 q 736 381 690 149 l 854 970 l 1034 970 l 916 381 q 421 -7 838 -7 q 81 381 4 -7 m 549 1112 q 625 1019 531 1019 q 734 1112 715 1019 q 661 1202 752 1202 q 549 1112 568 1202 m 488 1110 q 671 1253 517 1253 q 795 1110 823 1253 q 614 968 766 968 q 488 1110 460 968 z "},"ů":{"ha":838,"x_min":-12,"x_max":799,"o":"m 799 712 l 656 0 l 497 0 l 525 240 q 194 0 393 0 q 35 231 -12 0 l 131 712 l 311 712 l 214 229 q 294 145 197 145 q 551 371 422 145 l 619 712 l 799 712 m 418 924 q 494 831 400 831 q 603 924 585 831 q 530 1015 621 1015 q 418 924 437 1015 m 357 923 q 541 1065 386 1065 q 664 923 692 1065 q 484 781 635 781 q 357 923 329 781 z "},"Ā":{"ha":1059,"x_min":-79,"x_max":946,"o":"m 112 0 l -79 0 l 526 970 l 720 970 l 946 0 l 760 0 l 702 264 l 380 264 l 473 420 l 668 420 l 588 785 l 112 0 m 838 1227 l 809 1085 l 470 1085 l 498 1227 l 838 1227 z "},"ā":{"ha":805,"x_min":-45,"x_max":760,"o":"m 554 551 q 418 567 513 567 q 202 348 245 567 q 269 149 162 149 q 511 335 400 149 l 554 551 m 624 0 l 465 0 l 481 183 q 204 0 364 0 q 24 347 -45 0 q 467 712 97 712 q 760 683 591 712 l 624 0 m 673 970 l 645 827 l 306 827 l 334 970 l 673 970 z "},"Ă":{"ha":1059,"x_min":-79,"x_max":946,"o":"m 112 0 l -79 0 l 526 970 l 720 970 l 946 0 l 760 0 l 702 264 l 380 264 l 473 420 l 668 420 l 588 785 l 112 0 m 468 1227 l 587 1227 q 649 1133 568 1133 q 749 1227 730 1133 l 868 1227 q 629 1031 829 1031 q 468 1227 429 1031 z "},"ă":{"ha":805,"x_min":-45,"x_max":760,"o":"m 554 551 q 418 567 513 567 q 202 348 245 567 q 269 149 162 149 q 511 335 400 149 l 554 551 m 624 0 l 465 0 l 481 183 q 204 0 364 0 q 24 347 -45 0 q 467 712 97 712 q 760 683 591 712 l 624 0 m 304 970 l 422 970 q 485 875 404 875 q 585 970 566 875 l 704 970 q 465 773 665 773 q 304 970 264 773 z "},"Ĉ":{"ha":943,"x_min":-30,"x_max":964,"o":"m 787 41 q 492 -7 652 -7 q 71 498 -30 -7 q 689 977 167 977 q 964 929 848 977 l 932 766 q 671 821 817 821 q 258 498 322 821 q 537 149 188 149 q 819 203 683 149 l 787 41 m 640 1227 l 742 1227 l 825 1051 l 703 1051 l 673 1139 l 608 1051 l 486 1051 l 640 1227 z "},"ĉ":{"ha":637,"x_min":-56,"x_max":639,"o":"m 518 88 q 283 0 412 0 q 17 363 -56 0 q 453 712 87 712 q 639 692 555 712 l 610 549 q 438 570 526 570 q 197 363 238 570 q 326 142 153 142 q 547 231 441 142 l 518 88 m 393 970 l 494 970 l 578 793 l 456 793 l 426 882 l 361 793 l 239 793 l 393 970 z "},"Ċ":{"ha":943,"x_min":-30,"x_max":964,"o":"m 787 41 q 492 -7 652 -7 q 71 498 -30 -7 q 689 977 167 977 q 964 929 848 977 l 932 766 q 671 821 817 821 q 258 498 322 821 q 537 149 188 149 q 819 203 683 149 l 787 41 m 771 1227 l 741 1078 l 582 1078 l 612 1227 l 771 1227 z "},"ċ":{"ha":637,"x_min":-56,"x_max":639,"o":"m 518 88 q 283 0 412 0 q 17 363 -56 0 q 453 712 87 712 q 639 692 555 712 l 610 549 q 438 570 526 570 q 197 363 238 570 q 326 142 153 142 q 547 231 441 142 l 518 88 m 524 970 l 494 821 l 334 821 l 364 970 l 524 970 z "},"Đ":{"ha":1017,"x_min":-61,"x_max":1020,"o":"m 106 570 l 186 970 l 538 970 q 928 511 1020 970 q 345 0 826 0 l -8 0 l 75 414 l -61 414 l -30 570 l 106 570 m 286 570 l 479 570 l 448 414 l 254 414 l 203 156 l 376 156 q 749 511 677 156 q 507 814 809 814 l 334 814 l 286 570 z "},"đ":{"ha":805,"x_min":-45,"x_max":818,"o":"m 554 551 q 418 567 513 567 q 202 348 245 567 q 269 149 162 149 q 511 335 400 149 l 554 551 m 625 902 l 638 970 l 818 970 l 624 0 l 465 0 l 481 183 q 204 0 364 0 q 24 347 -45 0 q 467 712 97 712 q 585 707 522 712 l 596 760 l 134 760 l 162 902 l 625 902 z "},"Ē":{"ha":840,"x_min":5,"x_max":863,"o":"m 863 970 l 832 815 l 347 815 l 298 571 l 760 571 l 728 410 l 264 410 l 213 156 l 710 156 l 679 0 l 5 0 l 199 970 l 863 970 m 733 1227 l 705 1085 l 366 1085 l 394 1227 l 733 1227 z "},"ē":{"ha":733,"x_min":-56,"x_max":732,"o":"m 428 712 q 689 499 732 712 q 359 286 646 286 l 181 286 q 340 142 153 142 q 607 231 481 142 l 578 88 q 298 0 467 0 q 17 364 -56 0 q 428 712 87 712 m 208 418 l 387 418 q 515 494 499 418 q 399 571 530 571 q 208 418 250 571 m 637 970 l 609 827 l 270 827 l 298 970 l 637 970 z "},"Ĕ":{"ha":840,"x_min":5,"x_max":863,"o":"m 863 970 l 832 815 l 347 815 l 298 571 l 760 571 l 728 410 l 264 410 l 213 156 l 710 156 l 679 0 l 5 0 l 199 970 l 863 970 m 363 1227 l 482 1227 q 545 1133 463 1133 q 645 1227 626 1133 l 764 1227 q 524 1031 724 1031 q 363 1227 324 1031 z "},"ĕ":{"ha":733,"x_min":-56,"x_max":732,"o":"m 428 712 q 689 499 732 712 q 359 286 646 286 l 181 286 q 340 142 153 142 q 607 231 481 142 l 578 88 q 298 0 467 0 q 17 364 -56 0 q 428 712 87 712 m 208 418 l 387 418 q 515 494 499 418 q 399 571 530 571 q 208 418 250 571 m 268 970 l 387 970 q 449 875 368 875 q 549 970 530 875 l 668 970 q 429 773 629 773 q 268 970 229 773 z "},"Ė":{"ha":840,"x_min":5,"x_max":863,"o":"m 863 970 l 832 815 l 347 815 l 298 571 l 760 571 l 728 410 l 264 410 l 213 156 l 710 156 l 679 0 l 5 0 l 199 970 l 863 970 m 643 1227 l 613 1078 l 454 1078 l 484 1227 l 643 1227 z "},"ė":{"ha":733,"x_min":-56,"x_max":732,"o":"m 428 712 q 689 499 732 712 q 359 286 646 286 l 181 286 q 340 142 153 142 q 607 231 481 142 l 578 88 q 298 0 467 0 q 17 364 -56 0 q 428 712 87 712 m 208 418 l 387 418 q 515 494 499 418 q 399 571 530 571 q 208 418 250 571 m 547 970 l 517 821 l 358 821 l 388 970 l 547 970 z "},"Ĝ":{"ha":943,"x_min":-30,"x_max":964,"o":"m 787 45 q 484 -7 660 -7 q 71 498 -30 -7 q 689 977 167 977 q 964 929 848 977 l 932 766 q 671 821 817 821 q 258 498 322 821 q 517 149 188 149 q 632 165 566 149 l 688 448 l 868 448 l 787 45 m 633 1227 l 735 1227 l 819 1051 l 696 1051 l 667 1139 l 602 1051 l 479 1051 l 633 1227 z "},"ĝ":{"ha":805,"x_min":-45,"x_max":760,"o":"m 554 551 q 418 567 513 567 q 202 348 245 567 q 269 149 162 149 q 511 335 400 149 l 554 551 m 624 0 q 191 -258 572 -258 q -36 -224 59 -258 l -7 -81 q 220 -115 90 -115 q 444 0 421 -115 l 481 183 q 204 0 364 0 q 24 347 -45 0 q 467 712 97 712 q 760 683 591 712 l 624 0 m 453 970 l 555 970 l 638 793 l 516 793 l 486 882 l 421 793 l 299 793 l 453 970 z "},"Ğ":{"ha":943,"x_min":-30,"x_max":964,"o":"m 787 45 q 484 -7 660 -7 q 71 498 -30 -7 q 689 977 167 977 q 964 929 848 977 l 932 766 q 671 821 817 821 q 258 498 322 821 q 517 149 188 149 q 632 165 566 149 l 688 448 l 868 448 l 787 45 m 457 1227 l 576 1227 q 638 1133 557 1133 q 739 1227 720 1133 l 857 1227 q 618 1031 818 1031 q 457 1227 418 1031 z "},"ğ":{"ha":805,"x_min":-45,"x_max":760,"o":"m 554 551 q 418 567 513 567 q 202 348 245 567 q 269 149 162 149 q 511 335 400 149 l 554 551 m 624 0 q 191 -258 572 -258 q -36 -224 59 -258 l -7 -81 q 220 -115 90 -115 q 444 0 421 -115 l 481 183 q 204 0 364 0 q 24 347 -45 0 q 467 712 97 712 q 760 683 591 712 l 624 0 m 304 970 l 422 970 q 485 875 404 875 q 585 970 566 875 l 704 970 q 465 773 665 773 q 304 970 264 773 z "},"Ġ":{"ha":943,"x_min":-30,"x_max":964,"o":"m 787 45 q 484 -7 660 -7 q 71 498 -30 -7 q 689 977 167 977 q 964 929 848 977 l 932 766 q 671 821 817 821 q 258 498 322 821 q 517 149 188 149 q 632 165 566 149 l 688 448 l 868 448 l 787 45 m 771 1227 l 741 1078 l 582 1078 l 612 1227 l 771 1227 z "},"ġ":{"ha":805,"x_min":-45,"x_max":760,"o":"m 554 551 q 418 567 513 567 q 202 348 245 567 q 269 149 162 149 q 511 335 400 149 l 554 551 m 624 0 q 191 -258 572 -258 q -36 -224 59 -258 l -7 -81 q 220 -115 90 -115 q 444 0 421 -115 l 481 183 q 204 0 364 0 q 24 347 -45 0 q 467 712 97 712 q 760 683 591 712 l 624 0 m 583 970 l 553 821 l 394 821 l 424 970 l 583 970 z "},"Ģ":{"ha":943,"x_min":-30,"x_max":964,"o":"m 787 45 q 484 -7 660 -7 q 71 498 -30 -7 q 689 977 167 977 q 964 929 848 977 l 932 766 q 671 821 817 821 q 258 498 322 821 q 517 149 188 149 q 632 165 566 149 l 688 448 l 868 448 l 787 45 m 503 -68 l 363 -258 l 183 -258 l 323 -68 l 503 -68 z "},"ģ":{"ha":805,"x_min":-45,"x_max":760,"o":"m 554 551 q 418 567 513 567 q 202 348 245 567 q 269 149 162 149 q 511 335 400 149 l 554 551 m 624 0 q 191 -258 572 -258 q -36 -224 59 -258 l -7 -81 q 220 -115 90 -115 q 444 0 421 -115 l 481 183 q 204 0 364 0 q 24 347 -45 0 q 467 712 97 712 q 760 683 591 712 l 624 0 m 678 970 l 538 780 l 359 780 l 498 970 l 678 970 z "},"Ĥ":{"ha":1041,"x_min":5,"x_max":1037,"o":"m 5 0 l 199 970 l 379 970 l 299 570 l 777 570 l 857 970 l 1037 970 l 843 0 l 663 0 l 746 414 l 268 414 l 185 0 l 5 0 m 608 1227 l 710 1227 l 793 1051 l 671 1051 l 642 1139 l 576 1051 l 454 1051 l 608 1227 z "},"ĥ":{"ha":838,"x_min":-12,"x_max":799,"o":"m -12 0 l 182 970 l 362 970 l 265 486 q 593 712 395 712 q 753 481 799 712 l 656 0 l 477 0 l 573 483 q 493 567 590 567 q 237 341 365 567 l 168 0 l -12 0 m 262 1244 l 364 1244 l 448 1068 l 326 1068 l 296 1156 l 231 1068 l 109 1068 l 262 1244 z "},"Ħ":{"ha":1041,"x_min":5,"x_max":1037,"o":"m 834 854 l 857 970 l 1037 970 l 843 0 l 663 0 l 746 414 l 268 414 l 185 0 l 5 0 l 199 970 l 379 970 l 356 854 l 834 854 m 328 712 l 299 570 l 777 570 l 806 712 l 328 712 z "},"ħ":{"ha":838,"x_min":-12,"x_max":837,"o":"m 320 760 l 265 486 q 593 712 395 712 q 753 481 799 712 l 656 0 l 477 0 l 573 483 q 493 567 590 567 q 237 341 365 567 l 168 0 l -12 0 l 182 970 l 362 970 l 349 902 l 837 902 l 808 760 l 320 760 z "},"Ĩ":{"ha":383,"x_min":6,"x_max":506,"o":"m 380 970 l 186 0 l 6 0 l 200 970 l 380 970 m 161 1196 q 256 1227 208 1227 q 327 1210 291 1227 q 401 1192 363 1192 q 506 1223 452 1192 l 477 1081 q 383 1050 431 1050 q 312 1067 348 1050 q 238 1085 276 1085 q 133 1054 187 1085 l 161 1196 z "},"ĩ":{"ha":349,"x_min":-11,"x_max":441,"o":"m 311 712 l 169 0 l -11 0 l 132 712 l 311 712 m 97 939 q 191 970 144 970 q 262 952 227 970 q 336 935 298 935 q 441 966 387 935 l 413 823 q 319 792 366 792 q 248 810 283 792 q 174 827 212 827 q 68 796 123 827 l 97 939 z "},"Ī":{"ha":383,"x_min":6,"x_max":507,"o":"m 380 970 l 186 0 l 6 0 l 200 970 l 380 970 m 507 1227 l 478 1085 l 139 1085 l 168 1227 l 507 1227 z "},"ī":{"ha":349,"x_min":-11,"x_max":442,"o":"m 311 712 l 169 0 l -11 0 l 132 712 l 311 712 m 442 970 l 414 827 l 75 827 l 103 970 l 442 970 z "},"Ĭ":{"ha":383,"x_min":6,"x_max":537,"o":"m 380 970 l 186 0 l 6 0 l 200 970 l 380 970 m 137 1227 l 256 1227 q 318 1133 237 1133 q 418 1227 399 1133 l 537 1227 q 298 1031 498 1031 q 137 1227 98 1031 z "},"ĭ":{"ha":349,"x_min":-11,"x_max":473,"o":"m 311 712 l 169 0 l -11 0 l 132 712 l 311 712 m 73 970 l 191 970 q 254 875 172 875 q 354 970 335 875 l 473 970 q 233 773 433 773 q 73 970 33 773 z "},"Į":{"ha":383,"x_min":-148,"x_max":379,"o":"m 5 0 l 199 970 l 379 970 l 185 0 q 11 -134 24 -65 q 59 -180 1 -180 q 155 -167 117 -180 l 133 -275 q 29 -289 89 -289 q -120 -151 -148 -289 q 5 0 -102 -62 z "},"į":{"ha":349,"x_min":-165,"x_max":362,"o":"m 362 970 l 334 827 l 154 827 l 182 970 l 362 970 m -12 0 l 131 712 l 311 712 l 168 0 q -6 -134 7 -65 q 42 -180 -16 -180 q 138 -167 100 -180 l 116 -275 q 12 -289 72 -289 q -137 -151 -165 -289 q -12 0 -119 -62 z "},"İ":{"ha":383,"x_min":5,"x_max":416,"o":"m 379 970 l 185 0 l 5 0 l 199 970 l 379 970 m 416 1227 l 387 1078 l 227 1078 l 257 1227 l 416 1227 z "},"Ĳ":{"ha":885,"x_min":5,"x_max":881,"o":"m 379 970 l 185 0 l 5 0 l 199 970 l 379 970 m 881 970 l 743 279 q 304 0 687 0 l 335 156 q 563 279 538 156 l 701 970 l 881 970 z "},"ĳ":{"ha":699,"x_min":-12,"x_max":711,"o":"m 362 970 l 334 827 l 154 827 l 182 970 l 362 970 m 311 712 l 168 0 l -12 0 l 131 712 l 311 712 m 711 970 l 683 827 l 503 827 l 532 970 l 711 970 m 660 712 l 528 54 q 334 -297 485 -161 l 213 -199 q 349 54 316 -107 l 480 712 l 660 712 z "},"Ĵ":{"ha":502,"x_min":-79,"x_max":583,"o":"m 498 970 l 359 279 q -79 0 304 0 l -48 156 q 180 279 155 156 l 318 970 l 498 970 m 398 1227 l 500 1227 l 583 1051 l 461 1051 l 431 1139 l 366 1051 l 244 1051 l 398 1227 z "},"ĵ":{"ha":349,"x_min":-136,"x_max":408,"o":"m 311 712 l 179 54 q -15 -297 136 -161 l -136 -199 q -1 54 -33 -107 l 131 712 l 311 712 m 223 970 l 325 970 l 408 793 l 286 793 l 256 882 l 191 793 l 69 793 l 223 970 z "},"Ķ":{"ha":983,"x_min":5,"x_max":1034,"o":"m 379 970 l 185 0 l 5 0 l 199 970 l 379 970 m 1034 970 l 496 499 l 890 0 l 655 0 l 330 453 l 353 570 l 808 970 l 1034 970 m 504 -68 l 364 -258 l 184 -258 l 324 -68 l 504 -68 z "},"ķ":{"ha":828,"x_min":-12,"x_max":816,"o":"m -12 0 l 182 970 l 362 970 l 273 521 q 597 712 421 712 q 777 520 816 712 q 536 289 750 385 l 698 0 l 492 0 l 354 269 l 366 325 q 601 500 576 379 q 519 570 614 570 q 242 370 395 570 l 168 0 l -12 0 m 403 -68 l 263 -258 l 83 -258 l 223 -68 l 403 -68 z "},"ĸ":{"ha":785,"x_min":-12,"x_max":854,"o":"m 854 712 l 484 391 l 722 0 l 494 0 l 302 342 l 316 412 l 638 712 l 854 712 m -12 0 l 131 712 l 311 712 l 168 0 l -12 0 z "},"Ĺ":{"ha":734,"x_min":5,"x_max":602,"o":"m 379 970 l 216 156 l 602 156 l 570 0 l 5 0 l 199 970 l 379 970 m 319 1227 l 535 1227 l 338 1052 l 186 1052 l 319 1227 z "},"ĺ":{"ha":349,"x_min":-12,"x_max":531,"o":"m 362 970 l 168 0 l -12 0 l 182 970 l 362 970 m 315 1244 l 531 1244 l 334 1069 l 182 1069 l 315 1244 z "},"Ļ":{"ha":734,"x_min":5,"x_max":602,"o":"m 379 970 l 216 156 l 602 156 l 570 0 l 5 0 l 199 970 l 379 970 m 381 -68 l 241 -258 l 62 -258 l 201 -68 l 381 -68 z "},"ļ":{"ha":349,"x_min":-168,"x_max":362,"o":"m 362 970 l 168 0 l -12 0 l 182 970 l 362 970 m 151 -68 l 12 -258 l -168 -258 l -28 -68 l 151 -68 z "},"Ľ":{"ha":734,"x_min":5,"x_max":766,"o":"m 379 970 l 216 156 l 602 156 l 570 0 l 5 0 l 199 970 l 379 970 m 766 970 l 605 675 l 439 675 l 600 970 l 766 970 z "},"ľ":{"ha":349,"x_min":-12,"x_max":698,"o":"m 362 970 l 168 0 l -12 0 l 182 970 l 362 970 m 698 970 l 537 675 l 371 675 l 532 970 l 698 970 z "},"Ŀ":{"ha":734,"x_min":5,"x_max":608,"o":"m 379 970 l 216 156 l 602 156 l 570 0 l 5 0 l 199 970 l 379 970 m 421 485 q 523 570 438 570 q 591 485 608 570 q 489 400 574 400 q 421 485 404 400 z "},"ŀ":{"ha":349,"x_min":-12,"x_max":509,"o":"m 362 970 l 168 0 l -12 0 l 182 970 l 362 970 m 323 388 q 425 473 340 473 q 492 388 509 473 q 391 303 475 303 q 323 388 306 303 z "},"Ņ":{"ha":1068,"x_min":5,"x_max":1064,"o":"m 5 0 l 199 970 l 379 970 l 753 277 l 891 970 l 1064 970 l 870 0 l 690 0 l 320 708 l 178 0 l 5 0 m 600 -68 l 460 -258 l 280 -258 l 420 -68 l 600 -68 z "},"ņ":{"ha":838,"x_min":-12,"x_max":799,"o":"m -12 0 l 131 712 l 290 712 l 262 472 q 593 712 395 712 q 753 481 799 712 l 656 0 l 477 0 l 573 483 q 493 567 590 567 q 237 341 365 567 l 168 0 l -12 0 m 422 -68 l 283 -258 l 103 -258 l 243 -68 l 422 -68 z "},"ŉ":{"ha":905,"x_min":-63,"x_max":867,"o":"m 264 970 l 103 675 l -63 675 l 98 970 l 264 970 m 56 0 l 199 712 l 358 712 l 330 472 q 661 712 463 712 q 821 481 867 712 l 724 0 l 545 0 l 641 483 q 561 567 658 567 q 304 341 433 567 l 236 0 l 56 0 z "},"Ŋ":{"ha":1068,"x_min":5,"x_max":1064,"o":"m 690 0 l 320 708 l 178 0 l 5 0 l 199 970 l 379 970 l 753 277 l 891 970 l 1064 970 l 881 54 q 687 -297 838 -161 l 566 -199 q 690 0 657 -123 z "},"ŋ":{"ha":838,"x_min":-12,"x_max":799,"o":"m 573 483 q 493 567 590 567 q 237 341 365 567 l 168 0 l -12 0 l 131 712 l 290 712 l 262 472 q 593 712 395 712 q 753 481 799 712 l 667 54 q 473 -297 624 -161 l 352 -199 q 488 54 455 -107 l 573 483 z "},"Ō":{"ha":1102,"x_min":-8,"x_max":1133,"o":"m 256 488 q 488 149 188 149 q 849 488 781 149 q 623 821 916 821 q 256 488 322 821 m 68 484 q 654 977 167 977 q 1035 484 1133 977 q 457 -7 937 -7 q 68 484 -8 -7 m 873 1227 l 844 1085 l 505 1085 l 534 1227 l 873 1227 z "},"ō":{"ha":793,"x_min":-45,"x_max":790,"o":"m 206 359 q 328 136 161 136 q 538 359 494 136 q 416 576 582 576 q 206 359 250 576 m 26 356 q 444 719 98 719 q 718 356 790 719 q 299 -6 645 -6 q 26 356 -45 -6 m 664 970 l 635 827 l 296 827 l 325 970 l 664 970 z "},"Ŏ":{"ha":1102,"x_min":-8,"x_max":1133,"o":"m 256 488 q 488 149 188 149 q 849 488 781 149 q 623 821 916 821 q 256 488 322 821 m 68 484 q 654 977 167 977 q 1035 484 1133 977 q 457 -7 937 -7 q 68 484 -8 -7 m 503 1227 l 622 1227 q 684 1133 603 1133 q 785 1227 766 1133 l 903 1227 q 664 1031 864 1031 q 503 1227 464 1031 z "},"ŏ":{"ha":793,"x_min":-45,"x_max":790,"o":"m 206 359 q 328 136 161 136 q 538 359 494 136 q 416 576 582 576 q 206 359 250 576 m 26 356 q 444 719 98 719 q 718 356 790 719 q 299 -6 645 -6 q 26 356 -45 -6 m 294 970 l 413 970 q 475 875 394 875 q 576 970 557 875 l 694 970 q 455 773 655 773 q 294 970 255 773 z "},"Ő":{"ha":1102,"x_min":-8,"x_max":1133,"o":"m 256 488 q 488 149 188 149 q 849 488 781 149 q 623 821 916 821 q 256 488 322 821 m 68 484 q 654 977 167 977 q 1035 484 1133 977 q 457 -7 937 -7 q 68 484 -8 -7 m 540 1227 l 756 1227 l 559 1052 l 407 1052 l 540 1227 m 815 1227 l 1031 1227 l 834 1052 l 682 1052 l 815 1227 z "},"ő":{"ha":793,"x_min":-45,"x_max":830,"o":"m 206 359 q 328 136 161 136 q 538 359 494 136 q 416 576 582 576 q 206 359 250 576 m 26 356 q 444 719 98 719 q 718 356 790 719 q 299 -6 645 -6 q 26 356 -45 -6 m 338 970 l 555 970 l 357 794 l 205 794 l 338 970 m 614 970 l 830 970 l 633 794 l 481 794 l 614 970 z "},"Ŕ":{"ha":892,"x_min":5,"x_max":937,"o":"m 5 1 l 199 970 l 640 970 q 885 710 937 970 q 595 419 844 505 l 819 0 l 610 0 l 399 422 l 415 505 q 696 705 665 549 q 597 812 718 812 l 351 812 l 189 1 l 5 1 m 581 1227 l 798 1227 l 600 1052 l 448 1052 l 581 1227 z "},"ŕ":{"ha":495,"x_min":-12,"x_max":589,"o":"m -12 0 l 131 712 l 290 712 l 265 486 q 524 712 386 712 l 494 560 q 237 341 359 560 l 168 0 l -12 0 m 372 970 l 589 970 l 391 794 l 239 794 l 372 970 z "},"Ŗ":{"ha":892,"x_min":5,"x_max":937,"o":"m 5 1 l 199 970 l 640 970 q 885 710 937 970 q 595 419 844 505 l 819 0 l 610 0 l 399 422 l 415 505 q 696 705 665 549 q 597 812 718 812 l 351 812 l 189 1 l 5 1 m 507 -68 l 368 -258 l 188 -258 l 328 -68 l 507 -68 z "},"ŗ":{"ha":495,"x_min":-163,"x_max":525,"o":"m -11 0 l 132 712 l 291 712 l 266 486 q 525 712 387 712 l 494 560 q 237 341 360 560 l 169 0 l -11 0 m 157 -68 l 17 -258 l -163 -258 l -23 -68 l 157 -68 z "},"Ŝ":{"ha":868,"x_min":-3,"x_max":873,"o":"m -3 41 l 29 203 q 348 149 164 149 q 601 298 571 149 q 486 407 623 407 l 334 407 q 90 678 36 407 q 574 977 150 977 q 873 929 736 977 l 840 766 q 543 821 705 821 q 270 678 298 821 q 366 570 248 570 l 518 570 q 781 298 835 570 q 317 -7 720 -7 q -3 41 133 -7 m 522 1227 l 623 1227 l 707 1051 l 585 1051 l 555 1139 l 490 1051 l 368 1051 l 522 1227 z "},"ŝ":{"ha":695,"x_min":-5,"x_max":660,"o":"m -5 34 l 25 183 q 290 136 134 136 q 420 210 406 136 q 356 278 434 278 l 227 278 q 54 495 10 278 q 415 719 98 719 q 660 678 549 719 l 630 529 q 382 576 521 576 q 221 502 236 576 q 292 434 208 434 l 408 434 q 602 217 645 434 q 254 -7 557 -7 q -5 34 106 -7 m 399 970 l 501 970 l 585 793 l 463 793 l 433 882 l 368 793 l 245 793 l 399 970 z "},"Ş":{"ha":868,"x_min":-3,"x_max":873,"o":"m 259 -5 q -3 41 111 1 l 29 203 q 348 149 164 149 q 601 298 571 149 q 486 407 623 407 l 334 407 q 90 678 36 407 q 574 977 150 977 q 873 929 736 977 l 840 766 q 543 821 705 821 q 270 678 298 821 q 366 570 248 570 l 518 570 q 781 298 835 570 q 368 -5 724 14 l 334 -52 q 457 -162 479 -52 q 249 -286 433 -286 q 109 -252 176 -286 l 126 -165 q 266 -199 193 -199 q 347 -162 339 -199 q 296 -132 353 -132 l 172 -132 l 259 -5 z "},"ş":{"ha":695,"x_min":-5,"x_max":660,"o":"m 185 -5 q -5 34 79 3 l 25 183 q 290 136 134 136 q 420 210 406 136 q 356 278 434 278 l 227 278 q 54 495 10 278 q 415 719 98 719 q 660 678 549 719 l 630 529 q 382 576 521 576 q 221 502 236 576 q 292 434 208 434 l 408 434 q 602 217 645 434 q 293 -6 559 8 l 260 -52 q 382 -162 405 -52 q 174 -286 358 -286 q 35 -252 101 -286 l 52 -165 q 191 -199 118 -199 q 272 -162 264 -199 q 222 -132 278 -132 l 98 -132 l 185 -5 z "},"Ș":{"ha":868,"x_min":-3,"x_max":873,"o":"m -3 41 l 29 203 q 348 149 164 149 q 601 298 571 149 q 486 407 623 407 l 334 407 q 90 678 36 407 q 574 977 150 977 q 873 929 736 977 l 840 766 q 543 821 705 821 q 270 678 298 821 q 366 570 248 570 l 518 570 q 781 298 835 570 q 317 -7 720 -7 q -3 41 133 -7 m 465 -68 l 326 -258 l 146 -258 l 286 -68 l 465 -68 z "},"ș":{"ha":695,"x_min":-5,"x_max":660,"o":"m -5 34 l 25 183 q 290 136 134 136 q 420 210 406 136 q 356 278 434 278 l 227 278 q 54 495 10 278 q 415 719 98 719 q 660 678 549 719 l 630 529 q 382 576 521 576 q 221 502 236 576 q 292 434 208 434 l 408 434 q 602 217 645 434 q 254 -7 557 -7 q -5 34 106 -7 m 384 -68 l 244 -258 l 64 -258 l 204 -68 l 384 -68 z "},"Ţ":{"ha":736,"x_min":23,"x_max":833,"o":"m 833 970 l 802 814 l 524 814 l 361 0 l 182 0 l 345 814 l 66 814 l 98 970 l 833 970 m 342 -68 l 203 -258 l 23 -258 l 163 -68 l 342 -68 z "},"ţ":{"ha":461,"x_min":-97,"x_max":456,"o":"m 154 827 l 287 827 l 291 712 l 456 712 l 428 570 l 282 570 l 216 242 q 283 142 197 142 l 342 142 l 314 0 l 168 0 q 27 192 -12 0 l 154 827 m 222 -68 l 83 -258 l -97 -258 l 43 -68 l 222 -68 z "},"Ŧ":{"ha":736,"x_min":-14,"x_max":833,"o":"m 293 556 l 345 814 l 66 814 l 98 970 l 833 970 l 802 814 l 524 814 l 473 556 l 751 556 l 722 414 l 444 414 l 361 0 l 182 0 l 264 414 l -14 414 l 15 556 l 293 556 z "},"ŧ":{"ha":461,"x_min":-36,"x_max":456,"o":"m 77 443 l 154 827 l 287 827 l 291 712 l 456 712 l 428 570 l 282 570 l 257 443 l 403 443 l 374 300 l 229 300 l 217 242 q 283 142 197 142 l 342 142 l 314 0 l 168 0 q 27 192 -12 0 l 49 300 l -36 300 l -7 443 l 77 443 z "},"Ũ":{"ha":1038,"x_min":4,"x_max":1034,"o":"m 81 381 l 199 970 l 379 970 l 261 381 q 452 149 215 149 q 736 381 690 149 l 854 970 l 1034 970 l 916 381 q 421 -7 838 -7 q 81 381 4 -7 m 481 1196 q 576 1227 528 1227 q 647 1210 611 1227 q 721 1192 683 1192 q 826 1223 772 1192 l 798 1081 q 703 1050 751 1050 q 632 1067 668 1050 q 558 1085 596 1085 q 453 1054 507 1085 l 481 1196 z "},"ũ":{"ha":838,"x_min":-12,"x_max":799,"o":"m 799 712 l 656 0 l 497 0 l 525 240 q 194 0 393 0 q 35 231 -12 0 l 131 712 l 311 712 l 214 229 q 294 145 197 145 q 551 371 422 145 l 619 712 l 799 712 m 341 939 q 435 970 388 970 q 507 952 471 970 q 581 935 543 935 q 686 966 631 935 l 657 823 q 563 792 610 792 q 492 810 528 792 q 418 827 456 827 q 313 796 367 827 l 341 939 z "},"Ū":{"ha":1038,"x_min":4,"x_max":1034,"o":"m 81 381 l 199 970 l 379 970 l 261 381 q 452 149 215 149 q 736 381 690 149 l 854 970 l 1034 970 l 916 381 q 421 -7 838 -7 q 81 381 4 -7 m 827 1227 l 798 1085 l 459 1085 l 488 1227 l 827 1227 z "},"ū":{"ha":838,"x_min":-12,"x_max":799,"o":"m 799 712 l 656 0 l 497 0 l 525 240 q 194 0 393 0 q 35 231 -12 0 l 131 712 l 311 712 l 214 229 q 294 145 197 145 q 551 371 422 145 l 619 712 l 799 712 m 686 970 l 658 827 l 319 827 l 347 970 l 686 970 z "},"Ŭ":{"ha":1038,"x_min":4,"x_max":1034,"o":"m 81 381 l 199 970 l 379 970 l 261 381 q 452 149 215 149 q 736 381 690 149 l 854 970 l 1034 970 l 916 381 q 421 -7 838 -7 q 81 381 4 -7 m 457 1227 l 576 1227 q 638 1133 557 1133 q 739 1227 720 1133 l 857 1227 q 618 1031 818 1031 q 457 1227 418 1031 z "},"ŭ":{"ha":838,"x_min":-12,"x_max":799,"o":"m 799 712 l 656 0 l 497 0 l 525 240 q 194 0 393 0 q 35 231 -12 0 l 131 712 l 311 712 l 214 229 q 294 145 197 145 q 551 371 422 145 l 619 712 l 799 712 m 317 970 l 435 970 q 498 875 416 875 q 598 970 579 875 l 717 970 q 477 773 677 773 q 317 970 277 773 z "},"Ű":{"ha":1038,"x_min":4,"x_max":1034,"o":"m 81 381 l 199 970 l 379 970 l 261 381 q 452 149 215 149 q 736 381 690 149 l 854 970 l 1034 970 l 916 381 q 421 -7 838 -7 q 81 381 4 -7 m 501 1227 l 718 1227 l 520 1052 l 368 1052 l 501 1227 m 777 1227 l 993 1227 l 795 1052 l 644 1052 l 777 1227 z "},"ű":{"ha":838,"x_min":-12,"x_max":845,"o":"m 799 712 l 656 0 l 497 0 l 525 240 q 194 0 393 0 q 35 231 -12 0 l 131 712 l 311 712 l 214 229 q 294 145 197 145 q 551 371 422 145 l 619 712 l 799 712 m 353 970 l 570 970 l 372 794 l 220 794 l 353 970 m 629 970 l 845 970 l 648 794 l 496 794 l 629 970 z "},"Ų":{"ha":1038,"x_min":12,"x_max":1034,"o":"m 349 -3 q 82 381 12 29 l 199 970 l 379 970 l 262 381 q 452 149 215 149 q 736 381 690 149 l 854 970 l 1034 970 l 916 381 q 519 -1 848 41 q 360 -134 373 -68 q 408 -180 351 -180 q 504 -167 466 -180 l 482 -275 q 378 -289 438 -289 q 229 -151 201 -289 q 349 -3 246 -65 z "},"ų":{"ha":838,"x_min":-12,"x_max":799,"o":"m 656 0 q 479 -134 493 -65 q 528 -180 470 -180 q 623 -167 585 -180 l 602 -275 q 498 -289 557 -289 q 348 -151 321 -289 q 497 0 366 -62 l 525 240 q 194 0 393 0 q 35 231 -12 0 l 131 712 l 311 712 l 214 229 q 294 145 197 145 q 551 371 422 145 l 619 712 l 799 712 l 656 0 z "},"Ŵ":{"ha":1282,"x_min":87,"x_max":1356,"o":"m 121 970 l 297 970 l 262 273 l 653 970 l 826 970 l 928 300 l 1172 970 l 1356 970 l 979 0 l 808 0 l 694 761 l 256 0 l 87 0 l 121 970 m 747 1227 l 849 1227 l 932 1051 l 810 1051 l 781 1139 l 715 1051 l 593 1051 l 747 1227 z "},"ŵ":{"ha":1075,"x_min":-45,"x_max":1040,"o":"m 165 712 l 345 712 q 209 373 246 559 q 257 156 165 156 q 426 373 382 156 l 494 712 l 673 712 l 606 373 q 688 156 562 156 q 823 373 779 156 q 823 712 860 559 l 1002 712 q 1002 373 1040 559 q 656 0 928 0 q 479 196 497 0 q 226 0 385 0 q 29 373 -45 0 q 165 712 66 559 m 585 970 l 686 970 l 770 793 l 648 793 l 618 882 l 553 793 l 431 793 l 585 970 z "},"Ŷ":{"ha":882,"x_min":115,"x_max":1023,"o":"m 115 970 l 301 970 l 480 503 l 830 970 l 1023 970 l 541 339 l 473 0 l 293 0 l 361 339 l 115 970 m 559 1227 l 661 1227 l 744 1051 l 622 1051 l 592 1139 l 527 1051 l 405 1051 l 559 1227 z "},"ŷ":{"ha":838,"x_min":-12,"x_max":799,"o":"m 525 240 q 194 0 393 0 q 35 231 -12 0 l 131 712 l 311 712 l 214 229 q 294 145 197 145 q 551 371 422 145 l 619 712 l 799 712 l 656 0 q 223 -258 605 -258 q -3 -224 92 -258 l 25 -81 q 253 -115 122 -115 q 477 0 454 -115 l 525 240 m 466 970 l 568 970 l 651 793 l 529 793 l 499 882 l 434 793 l 312 793 l 466 970 z "},"ſ":{"ha":360,"x_min":-136,"x_max":663,"o":"m 131 712 q 509 1005 189 1005 q 663 978 597 1005 l 634 836 q 480 863 572 863 q 311 712 340 863 l 179 54 q -15 -297 136 -161 l -136 -199 q -1 54 -33 -107 l 131 712 z "},"Ё":{"ha":840,"x_min":5,"x_max":863,"o":"m 863 970 l 832 815 l 347 815 l 298 571 l 760 571 l 728 410 l 264 410 l 213 156 l 710 156 l 679 0 l 5 0 l 199 970 l 863 970 m 764 1227 l 739 1099 l 593 1099 l 618 1227 l 764 1227 m 534 1227 l 508 1099 l 362 1099 l 388 1227 l 534 1227 z "},"А":{"ha":1059,"x_min":-79,"x_max":946,"o":"m 112 0 l -79 0 l 526 970 l 720 970 l 946 0 l 760 0 l 702 264 l 380 264 l 473 420 l 668 420 l 588 785 l 112 0 z "},"Б":{"ha":876,"x_min":5,"x_max":878,"o":"m 878 970 l 847 814 l 349 814 l 218 158 l 439 158 q 603 273 581 158 q 451 400 629 400 l 378 400 l 409 556 l 488 556 q 785 280 840 556 q 419 0 728 0 l 5 0 l 199 970 l 878 970 z "},"В":{"ha":896,"x_min":5,"x_max":930,"o":"m 5 0 l 199 970 l 654 970 q 885 744 930 970 q 658 507 852 578 q 806 287 843 471 q 446 0 749 0 l 5 0 m 469 156 q 613 278 589 156 q 465 429 644 429 l 411 429 l 434 545 q 695 732 665 583 q 611 814 711 814 l 348 814 l 216 156 l 469 156 z "},"Г":{"ha":734,"x_min":5,"x_max":832,"o":"m 5 0 l 199 970 l 832 970 l 801 814 l 348 814 l 185 0 l 5 0 z "},"Д":{"ha":1206,"x_min":-148,"x_max":1128,"o":"m 327 156 l 785 156 l 917 814 l 652 814 q 327 156 544 272 m -148 -258 l -65 156 l 60 156 q 473 814 341 156 l 504 970 l 1128 970 l 965 156 l 1090 156 l 1008 -258 l 828 -258 l 880 0 l 83 0 l 31 -258 l -148 -258 z "},"Е":{"ha":840,"x_min":5,"x_max":863,"o":"m 863 970 l 832 815 l 347 815 l 298 571 l 760 571 l 728 410 l 264 410 l 213 156 l 710 156 l 679 0 l 5 0 l 199 970 l 863 970 z "},"Ж":{"ha":1498,"x_min":-79,"x_max":1548,"o":"m -79 0 q 288 443 219 387 q 414 514 357 499 q 283 684 315 541 q 170 827 250 827 l 117 827 l 145 970 l 218 970 q 450 772 406 970 q 589 574 494 574 l 564 443 q 454 394 511 443 q 147 0 398 345 l -79 0 m 937 970 l 743 0 l 563 0 l 757 970 l 937 970 m 1172 0 q 1023 394 1059 345 q 920 443 986 443 l 945 574 q 1164 772 1040 574 q 1476 970 1287 970 l 1548 970 l 1520 827 l 1466 827 q 1303 684 1393 827 q 1098 514 1213 541 q 1194 443 1147 499 q 1385 0 1241 387 l 1172 0 z "},"З":{"ha":756,"x_min":-22,"x_max":814,"o":"m 159 936 q 452 977 302 977 q 762 712 814 977 q 590 492 730 552 q 673 271 706 434 q 255 -7 618 -7 q -22 34 106 -7 l 11 197 q 286 149 137 149 q 494 271 469 149 q 392 414 522 414 l 156 414 l 187 570 l 421 570 q 582 712 553 570 q 420 821 604 821 q 126 773 271 821 l 159 936 z "},"И":{"ha":1007,"x_min":5,"x_max":1003,"o":"m 636 0 l 773 684 l 185 0 l 5 0 l 199 970 l 372 970 l 231 264 l 823 970 l 1003 970 l 809 0 l 636 0 z "},"Й":{"ha":1007,"x_min":5,"x_max":1003,"o":"m 451 1210 l 570 1210 q 632 1115 551 1115 q 732 1210 713 1115 l 851 1210 q 612 1013 812 1013 q 451 1210 412 1013 m 636 0 l 773 684 l 185 0 l 5 0 l 199 970 l 372 970 l 231 264 l 823 970 l 1003 970 l 809 0 l 636 0 z "},"К":{"ha":941,"x_min":5,"x_max":991,"o":"m 379 970 l 185 0 l 5 0 l 199 970 l 379 970 m 614 0 q 465 394 502 345 q 362 443 429 443 l 388 574 q 606 772 483 574 q 918 970 730 970 l 991 970 l 962 827 l 909 827 q 745 684 836 827 q 541 514 655 541 q 637 443 590 499 q 827 0 684 387 l 614 0 z "},"Л":{"ha":1027,"x_min":-96,"x_max":1023,"o":"m -68 142 q 231 473 165 142 l 331 970 l 1023 970 l 829 0 l 649 0 l 812 814 l 479 814 l 411 473 q -96 0 317 0 l -68 142 z "},"М":{"ha":1221,"x_min":5,"x_max":1217,"o":"m 5 0 l 199 970 l 386 970 l 568 234 l 1037 970 l 1217 970 l 1023 0 l 857 0 l 991 675 l 593 0 l 440 0 l 307 675 l 172 0 l 5 0 z "},"Н":{"ha":1061,"x_min":5,"x_max":1057,"o":"m 5 0 l 199 970 l 379 970 l 300 576 l 799 576 l 878 970 l 1057 970 l 863 0 l 684 0 l 768 420 l 269 420 l 185 0 l 5 0 z "},"О":{"ha":1102,"x_min":-8,"x_max":1133,"o":"m 256 488 q 488 149 188 149 q 849 488 781 149 q 623 821 916 821 q 256 488 322 821 m 68 484 q 654 977 167 977 q 1035 484 1133 977 q 457 -7 937 -7 q 68 484 -8 -7 z "},"П":{"ha":1061,"x_min":5,"x_max":1057,"o":"m 5 0 l 199 970 l 1057 970 l 863 0 l 684 0 l 846 814 l 348 814 l 185 0 l 5 0 z "},"Р":{"ha":850,"x_min":5,"x_max":930,"o":"m 5 0 l 199 970 l 633 970 q 876 696 930 970 q 398 338 817 400 l 404 498 q 687 691 657 542 q 590 812 711 812 l 347 812 l 185 0 l 5 0 z "},"С":{"ha":943,"x_min":-30,"x_max":964,"o":"m 787 41 q 492 -7 652 -7 q 71 498 -30 -7 q 689 977 167 977 q 964 929 848 977 l 932 766 q 671 821 817 821 q 258 498 322 821 q 537 149 188 149 q 819 203 683 149 l 787 41 z "},"Т":{"ha":736,"x_min":66,"x_max":833,"o":"m 833 970 l 802 814 l 524 814 l 361 0 l 182 0 l 345 814 l 66 814 l 98 970 l 833 970 z "},"У":{"ha":886,"x_min":24,"x_max":967,"o":"m 967 970 l 475 182 q 175 0 361 0 q 24 47 88 0 l 53 190 q 195 142 115 142 q 325 214 286 142 l 132 970 l 317 970 l 446 407 l 768 970 l 967 970 z "},"Ф":{"ha":1169,"x_min":-8,"x_max":1179,"o":"m 414 77 q 68 484 -8 102 q 577 893 145 868 l 593 970 l 772 970 l 757 894 q 1102 484 1179 871 q 593 76 1025 98 l 578 0 l 399 0 l 414 77 m 446 233 l 546 736 q 255 488 300 712 q 446 233 209 258 m 725 737 l 625 233 q 917 488 870 256 q 725 737 962 715 z "},"Х":{"ha":1019,"x_min":-79,"x_max":1105,"o":"m 399 485 l 115 970 l 335 970 l 532 609 l 871 970 l 1105 970 l 627 485 l 911 0 l 690 0 l 493 361 l 155 0 l -79 0 l 399 485 z "},"Ц":{"ha":1049,"x_min":5,"x_max":1008,"o":"m 5 0 l 199 970 l 379 970 l 216 156 l 665 156 l 828 970 l 1008 970 l 845 156 l 970 156 l 888 -258 l 708 -258 l 760 0 l 5 0 z "},"Ч":{"ha":941,"x_min":52,"x_max":991,"o":"m 991 970 l 798 0 l 618 0 l 697 396 q 391 319 549 319 q 123 672 52 319 l 182 970 l 362 970 l 302 670 q 439 477 264 477 q 731 568 595 477 l 812 970 l 991 970 z "},"Ш":{"ha":1353,"x_min":5,"x_max":1349,"o":"m 5 0 l 199 970 l 379 970 l 216 156 l 522 156 l 684 970 l 864 970 l 701 156 l 1006 156 l 1169 970 l 1349 970 l 1155 0 l 5 0 z "},"Щ":{"ha":1428,"x_min":5,"x_max":1349,"o":"m 5 0 l 199 970 l 379 970 l 216 156 l 522 156 l 684 970 l 864 970 l 701 156 l 1006 156 l 1169 970 l 1349 970 l 1186 156 l 1312 156 l 1229 -258 l 1049 -258 l 1101 0 l 5 0 z "},"Ъ":{"ha":1160,"x_min":66,"x_max":1107,"o":"m 618 970 l 456 158 l 732 158 q 862 273 840 158 q 744 400 888 400 l 616 400 l 648 556 l 782 556 q 1052 280 1107 556 q 712 0 996 0 l 244 0 l 407 814 l 66 814 l 98 970 l 618 970 z "},"Ы":{"ha":1163,"x_min":5,"x_max":1213,"o":"m 379 970 l 217 158 l 494 158 q 623 273 601 158 q 505 400 649 400 l 378 400 l 409 556 l 543 556 q 813 280 868 556 q 473 0 757 0 l 5 0 l 199 970 l 379 970 m 840 0 l 1034 970 l 1213 970 l 1019 0 l 840 0 z "},"Ь":{"ha":867,"x_min":5,"x_max":868,"o":"m 379 970 l 217 158 l 494 158 q 623 273 601 158 q 505 400 649 400 l 378 400 l 409 556 l 543 556 q 813 280 868 556 q 473 0 757 0 l 5 0 l 199 970 l 379 970 z "},"Э":{"ha":932,"x_min":-5,"x_max":964,"o":"m 28 197 q 276 149 144 149 q 663 414 589 149 l 120 414 l 151 570 l 694 570 q 410 821 729 821 q 143 773 278 821 l 176 936 q 455 977 309 977 q 868 498 964 977 q 258 -7 767 -7 q -5 34 113 -7 l 28 197 z "},"Ю":{"ha":1358,"x_min":5,"x_max":1389,"o":"m 5 0 l 199 970 l 378 970 l 298 570 l 465 570 q 970 977 583 977 q 1291 484 1389 977 q 774 -7 1192 -7 q 433 414 379 -7 l 267 414 l 184 0 l 5 0 m 805 149 q 1105 488 1037 149 q 939 821 1171 821 q 633 488 700 821 q 805 149 566 149 z "},"Я":{"ha":932,"x_min":-79,"x_max":928,"o":"m 551 1 l 713 812 l 474 812 q 324 698 347 812 q 550 505 294 549 l 534 422 l 154 0 l -79 0 l 312 419 q 147 755 101 521 q 508 970 191 970 l 928 970 l 734 1 l 551 1 z "},"а":{"ha":805,"x_min":-45,"x_max":760,"o":"m 554 551 q 418 567 513 567 q 202 348 245 567 q 269 149 162 149 q 511 335 400 149 l 554 551 m 624 0 l 465 0 l 481 183 q 204 0 364 0 q 24 347 -45 0 q 467 712 97 712 q 760 683 591 712 l 624 0 z "},"б":{"ha":808,"x_min":-47,"x_max":846,"o":"m 731 353 q 308 -7 659 -7 q 25 353 -47 -7 l 69 573 q 551 970 149 970 q 846 1044 715 970 l 816 892 q 521 827 699 827 q 258 605 303 827 q 500 712 363 712 q 734 370 803 712 l 731 353 m 336 136 q 551 353 507 136 q 429 566 593 566 q 208 353 251 566 q 336 136 165 136 z "},"в":{"ha":774,"x_min":-48,"x_max":777,"o":"m 311 -14 q 26 356 -48 -14 q 500 726 100 726 q 735 520 777 726 q 552 370 716 423 q 685 208 710 334 q 311 -14 641 -14 m 337 122 q 503 219 484 122 q 420 292 517 292 l 346 292 l 370 414 q 553 515 538 438 q 468 590 568 590 q 205 356 252 590 q 337 122 159 122 z "},"г":{"ha":692,"x_min":-47,"x_max":688,"o":"m 511 34 q 256 -7 384 -7 q -2 217 -47 -7 q 279 434 41 434 l 380 434 q 479 502 465 434 q 348 576 494 576 q 101 529 229 576 l 131 678 q 372 719 258 719 q 644 495 688 719 q 383 278 600 278 l 268 278 q 176 210 190 278 q 277 136 161 136 q 541 183 412 136 l 511 34 z "},"д":{"ha":800,"x_min":-47,"x_max":847,"o":"m 561 438 q 570 543 574 503 q 418 576 515 576 q 205 366 247 576 q 330 136 159 136 q 561 438 500 136 m 741 441 q 301 -7 652 -7 q 28 366 -47 -7 q 391 712 97 712 q 573 651 511 712 q 314 827 539 827 l 174 827 l 203 970 l 344 970 q 741 441 847 970 z "},"е":{"ha":733,"x_min":-56,"x_max":732,"o":"m 428 712 q 689 499 732 712 q 359 286 646 286 l 181 286 q 340 142 153 142 q 607 231 481 142 l 578 88 q 298 0 467 0 q 17 364 -56 0 q 428 712 87 712 m 208 418 l 387 418 q 515 494 499 418 q 399 571 530 571 q 208 418 250 571 z "},"ж":{"ha":1391,"x_min":-52,"x_max":1392,"o":"m 958 495 q 1274 712 1048 712 q 1392 692 1335 712 l 1364 549 q 1266 570 1314 570 q 1101 370 1141 570 q 1160 142 1055 142 q 1300 197 1221 142 l 1272 54 q 1112 0 1186 0 q 917 351 854 0 l 744 319 l 680 0 l 500 0 l 557 286 l 398 258 q 66 0 313 0 q -52 20 5 0 l -23 163 q 75 142 27 142 q 240 342 200 142 q 180 570 286 570 q 41 515 119 570 l 69 658 q 229 712 155 712 q 429 401 472 712 l 586 429 l 643 712 l 823 712 l 772 462 l 958 495 z "},"з":{"ha":600,"x_min":-49,"x_max":607,"o":"m 80 678 q 326 719 224 719 q 568 521 607 719 q 442 363 547 416 q 505 210 526 312 q 180 -7 462 -7 q -49 34 79 -7 l -19 183 q 209 136 107 136 q 326 210 311 136 q 266 292 342 292 l 71 292 l 99 434 l 292 434 q 388 521 370 434 q 297 576 399 576 q 50 529 195 576 l 80 678 z "},"и":{"ha":838,"x_min":-12,"x_max":799,"o":"m 799 712 l 656 0 l 497 0 l 525 240 q 194 0 393 0 q 35 231 -12 0 l 131 712 l 311 712 l 214 229 q 294 145 197 145 q 551 371 422 145 l 619 712 l 799 712 z "},"й":{"ha":838,"x_min":-12,"x_max":799,"o":"m 799 712 l 656 0 l 497 0 l 525 240 q 194 0 393 0 q 35 231 -12 0 l 131 712 l 311 712 l 214 229 q 294 145 197 145 q 551 371 422 145 l 619 712 l 799 712 m 317 970 l 435 970 q 498 875 416 875 q 598 970 579 875 l 717 970 q 477 773 677 773 q 317 970 277 773 z "},"к":{"ha":813,"x_min":-12,"x_max":799,"o":"m 311 717 l 168 0 l -12 0 l 132 717 l 311 717 m 500 0 l 434 167 q 304 314 377 314 l 328 438 q 488 577 405 438 q 726 715 572 715 l 799 715 l 770 569 l 716 569 q 592 487 650 569 q 463 372 534 405 q 623 179 547 357 l 700 0 l 500 0 z "},"л":{"ha":842,"x_min":-96,"x_max":804,"o":"m -68 142 q 121 285 93 142 l 149 424 q 505 712 207 712 l 804 712 l 661 0 l 481 0 l 595 570 l 477 570 q 330 427 358 570 l 301 285 q -96 0 244 0 l -68 142 z "},"м":{"ha":1024,"x_min":-12,"x_max":985,"o":"m -12 0 l 131 712 l 324 712 l 468 226 l 792 712 l 985 712 l 843 0 l 677 0 l 764 434 l 468 0 l 369 0 l 241 434 l 155 0 l -12 0 z "},"н":{"ha":824,"x_min":-12,"x_max":785,"o":"m -12 0 l 131 712 l 311 712 l 255 434 l 550 434 l 606 712 l 785 712 l 643 0 l 463 0 l 522 292 l 227 292 l 168 0 l -12 0 z "},"о":{"ha":793,"x_min":-45,"x_max":790,"o":"m 206 359 q 328 136 161 136 q 538 359 494 136 q 416 576 582 576 q 206 359 250 576 m 26 356 q 444 719 98 719 q 718 356 790 719 q 299 -6 645 -6 q 26 356 -45 -6 z "},"п":{"ha":838,"x_min":-12,"x_max":799,"o":"m -12 0 l 131 712 l 290 712 l 262 472 q 593 712 395 712 q 753 481 799 712 l 656 0 l 477 0 l 573 483 q 493 567 590 567 q 237 341 365 567 l 168 0 l -12 0 z "},"р":{"ha":799,"x_min":-63,"x_max":794,"o":"m 201 165 q 340 145 259 145 q 551 382 503 145 q 467 563 587 563 q 246 391 355 563 l 201 165 m 131 712 l 290 712 l 277 543 q 558 712 391 712 q 728 384 794 712 q 304 0 652 0 q 170 6 238 0 l 117 -258 l -63 -258 l 131 712 z "},"с":{"ha":637,"x_min":-56,"x_max":639,"o":"m 518 88 q 283 0 412 0 q 17 363 -56 0 q 453 712 87 712 q 639 692 555 712 l 610 549 q 438 570 526 570 q 197 363 238 570 q 326 142 153 142 q 547 231 441 142 l 518 88 z "},"т":{"ha":1244,"x_min":-12,"x_max":1206,"o":"m -12 0 l 131 712 l 290 712 l 264 480 q 541 712 387 712 q 698 479 745 712 q 987 712 834 712 q 1152 441 1206 712 l 1063 0 l 884 0 l 973 448 q 917 567 997 567 q 684 339 803 567 l 616 0 l 436 0 l 526 446 q 471 567 549 567 q 236 339 351 567 l 168 0 l -12 0 z "},"у":{"ha":733,"x_min":-32,"x_max":779,"o":"m 46 712 l 237 712 l 314 199 l 592 712 l 779 712 l 337 -21 q 31 -297 220 -215 l -32 -174 q 176 -4 98 -122 l 46 712 z "},"ф":{"ha":1249,"x_min":-45,"x_max":1244,"o":"m 726 543 q 1008 712 841 712 q 1178 384 1244 712 q 753 0 1101 0 q 619 6 688 0 l 566 -258 l 387 -258 l 472 170 q 191 0 357 0 q 20 328 -45 0 q 445 712 97 712 q 579 706 511 712 l 632 970 l 812 970 l 726 543 m 547 547 q 408 567 490 567 q 198 330 245 567 q 282 149 162 149 q 503 321 393 149 l 547 547 m 696 391 l 651 165 q 790 145 709 145 q 1000 382 953 145 q 916 563 1036 563 q 696 391 805 563 z "},"х":{"ha":732,"x_min":-96,"x_max":779,"o":"m 241 356 l 46 712 l 239 712 l 361 483 l 572 712 l 779 712 l 441 356 l 636 0 l 443 0 l 321 229 l 111 0 l -96 0 l 241 356 z "},"ц":{"ha":902,"x_min":-12,"x_max":810,"o":"m 678 109 l 810 142 q 663 -258 770 -58 l 483 -258 q 609 34 576 -129 l 497 0 l 525 240 q 194 0 393 0 q 35 231 -12 0 l 131 712 l 311 712 l 214 229 q 294 145 197 145 q 551 371 422 145 l 619 712 l 799 712 l 678 109 z "},"ч":{"ha":846,"x_min":8,"x_max":808,"o":"m 808 712 l 665 0 l 486 0 l 538 260 q 286 183 423 183 q 68 482 8 183 l 114 712 l 294 712 l 248 480 q 332 328 217 328 q 569 418 467 328 l 628 712 l 808 712 z "},"ш":{"ha":1244,"x_min":-12,"x_max":1206,"o":"m 1206 712 l 1063 0 l 904 0 l 930 232 q 653 0 808 0 q 496 233 450 0 q 207 0 360 0 q 43 271 -12 0 l 131 712 l 311 712 l 221 264 q 277 145 197 145 q 511 373 391 145 l 578 712 l 758 712 l 669 266 q 724 145 645 145 q 958 373 843 145 l 1026 712 l 1206 712 z "},"щ":{"ha":1309,"x_min":-12,"x_max":1217,"o":"m 1085 109 l 1217 142 q 1069 -258 1177 -58 l 890 -258 q 1016 34 983 -129 l 904 0 l 930 232 q 653 0 808 0 q 496 233 450 0 q 207 0 360 0 q 43 271 -12 0 l 131 712 l 311 712 l 221 264 q 277 145 197 145 q 511 373 391 145 l 578 712 l 758 712 l 669 266 q 724 145 645 145 q 958 373 843 145 l 1026 712 l 1206 712 l 1085 109 z "},"ъ":{"ha":890,"x_min":18,"x_max":841,"o":"m 432 712 l 344 271 q 467 144 319 144 q 618 232 601 144 q 562 298 631 298 l 441 298 l 470 440 l 597 440 q 800 233 841 440 q 435 0 753 0 q 164 271 110 0 l 224 570 l 18 570 l 46 712 l 432 712 z "},"ы":{"ha":1044,"x_min":-12,"x_max":1006,"o":"m 684 0 l 826 712 l 1006 712 l 863 0 l 684 0 m 311 712 l 222 271 q 359 144 197 144 q 496 232 479 144 q 441 298 510 298 l 320 298 l 349 440 l 475 440 q 678 233 720 440 q 328 0 631 0 q 43 271 -12 0 l 131 712 l 311 712 z "},"ь":{"ha":768,"x_min":-12,"x_max":720,"o":"m 311 712 l 222 271 q 359 144 197 144 q 496 232 479 144 q 441 298 510 298 l 320 298 l 349 440 l 475 440 q 678 233 720 440 q 328 0 631 0 q 43 271 -12 0 l 131 712 l 311 712 z "},"э":{"ha":648,"x_min":-41,"x_max":660,"o":"m -13 163 q 159 142 71 142 q 393 292 342 142 l 56 292 l 85 435 l 422 435 q 245 570 431 570 q 64 549 157 570 l 93 692 q 287 712 185 712 q 591 370 660 712 q 144 0 517 0 q -41 20 43 0 l -13 163 z "},"ю":{"ha":1110,"x_min":-12,"x_max":1117,"o":"m 670 136 q 859 359 814 136 q 758 576 902 576 q 564 359 607 576 q 670 136 519 136 m -12 0 l 131 712 l 310 712 l 254 434 l 394 434 q 787 719 476 719 q 1044 355 1117 719 q 642 -7 972 -7 q 365 292 323 -7 l 226 292 l 168 0 l -12 0 z "},"я":{"ha":760,"x_min":-79,"x_max":721,"o":"m 399 0 l 512 568 l 340 568 q 273 508 284 568 q 398 389 255 420 l 379 294 l 128 0 l -79 0 l 199 304 q 92 544 60 384 q 355 712 125 712 l 721 712 l 578 0 l 399 0 z "},"ё":{"ha":733,"x_min":-56,"x_max":732,"o":"m 428 712 q 689 499 732 712 q 359 286 646 286 l 181 286 q 340 142 153 142 q 607 231 481 142 l 578 88 q 298 0 467 0 q 17 364 -56 0 q 428 712 87 712 m 208 418 l 387 418 q 515 494 499 418 q 399 571 530 571 q 208 418 250 571 m 656 970 l 630 841 l 484 841 l 510 970 l 656 970 m 425 970 l 399 841 l 254 841 l 279 970 l 425 970 z "},";":{"ha":417,"x_min":-62,"x_max":395,"o":"m 395 712 l 362 546 l 182 546 l 216 712 l 395 712 m 278 125 l 117 -170 l -62 -170 l 98 125 l 278 125 z "},"΄":{"ha":450,"x_min":130,"x_max":479,"o":"m 263 970 l 479 970 l 282 794 l 130 794 l 263 970 z "},"΅":{"ha":777,"x_min":140,"x_max":806,"o":"m 806 970 l 781 841 l 635 841 l 661 970 l 806 970 m 311 970 l 286 841 l 140 841 l 165 970 l 311 970 m 419 970 l 635 970 l 438 794 l 286 794 l 419 970 z "},"Ά":{"ha":1059,"x_min":-79,"x_max":946,"o":"m 263 970 l 479 970 l 282 794 l 130 794 l 263 970 z "},"·":{"ha":315,"x_min":81,"x_max":294,"o":"m 294 712 l 260 546 l 81 546 l 114 712 l 294 712 z "},"Έ":{"ha":1052,"x_min":28,"x_max":1076,"o":"m 161 970 l 378 970 l 180 794 l 28 794 l 161 970 m 1076 970 l 1044 815 l 559 815 l 510 571 l 972 571 l 941 410 l 476 410 l 425 156 l 922 156 l 891 0 l 218 0 l 412 970 l 1076 970 z "},"Ή":{"ha":1253,"x_min":28,"x_max":1249,"o":"m 161 970 l 378 970 l 180 794 l 28 794 l 161 970 m 218 0 l 412 970 l 591 970 l 511 570 l 989 570 l 1069 970 l 1249 970 l 1055 0 l 876 0 l 958 414 l 480 414 l 397 0 l 218 0 z "},"Ί":{"ha":595,"x_min":28,"x_max":591,"o":"m 161 970 l 378 970 l 180 794 l 28 794 l 161 970 m 591 970 l 397 0 l 218 0 l 412 970 l 591 970 z "},"Ό":{"ha":1213,"x_min":28,"x_max":1244,"o":"m 161 970 l 378 970 l 180 794 l 28 794 l 161 970 m 366 488 q 599 149 298 149 q 960 488 892 149 q 733 821 1026 821 q 366 488 433 821 m 178 484 q 764 977 277 977 q 1145 484 1244 977 q 568 -7 1047 -7 q 178 484 102 -7 z "},"Ύ":{"ha":1162,"x_min":28,"x_max":1303,"o":"m 161 970 l 378 970 l 180 794 l 28 794 l 161 970 m 395 970 l 581 970 l 760 503 l 1110 970 l 1303 970 l 821 339 l 753 0 l 573 0 l 641 339 l 395 970 z "},"Ώ":{"ha":1202,"x_min":28,"x_max":1221,"o":"m 161 970 l 378 970 l 180 794 l 28 794 l 161 970 m 106 0 l 137 156 l 317 156 q 204 543 153 285 q 757 983 292 983 q 1133 543 1221 983 q 866 156 1082 285 l 1046 156 l 1015 0 l 642 0 l 673 156 q 954 543 902 285 q 726 827 1010 827 q 384 543 441 827 q 510 156 332 285 l 479 0 l 106 0 z "},"ΐ":{"ha":383,"x_min":-16,"x_max":650,"o":"m 328 712 l 185 0 l 5 0 l 148 712 l 328 712 m 650 970 l 625 841 l 479 841 l 505 970 l 650 970 m 155 970 l 130 841 l -16 841 l 9 970 l 155 970 m 263 970 l 479 970 l 282 794 l 130 794 l 263 970 z "},"Α":{"ha":1059,"x_min":-79,"x_max":946,"o":"m 112 0 l -79 0 l 526 970 l 720 970 l 946 0 l 760 0 l 702 264 l 380 264 l 473 420 l 668 420 l 588 785 l 112 0 z "},"Β":{"ha":896,"x_min":5,"x_max":930,"o":"m 5 0 l 199 970 l 654 970 q 885 744 930 970 q 658 507 852 578 q 806 287 843 471 q 446 0 749 0 l 5 0 m 469 156 q 613 278 589 156 q 465 429 644 429 l 411 429 l 434 545 q 695 732 665 583 q 611 814 711 814 l 348 814 l 216 156 l 469 156 z "},"Γ":{"ha":734,"x_min":5,"x_max":832,"o":"m 5 0 l 199 970 l 832 970 l 801 814 l 348 814 l 185 0 l 5 0 z "},"Ε":{"ha":840,"x_min":5,"x_max":863,"o":"m 863 970 l 832 815 l 347 815 l 298 571 l 760 571 l 728 410 l 264 410 l 213 156 l 710 156 l 679 0 l 5 0 l 199 970 l 863 970 z "},"Ζ":{"ha":848,"x_min":-12,"x_max":901,"o":"m 901 970 l 870 814 l 222 156 l 739 156 l 707 0 l -12 0 l 20 156 l 676 814 l 165 814 l 196 970 l 901 970 z "},"Η":{"ha":1041,"x_min":5,"x_max":1037,"o":"m 5 0 l 199 970 l 379 970 l 299 570 l 777 570 l 857 970 l 1037 970 l 843 0 l 663 0 l 746 414 l 268 414 l 185 0 l 5 0 z "},"Θ":{"ha":1129,"x_min":-16,"x_max":1147,"o":"m 269 488 q 502 149 201 149 q 863 488 795 149 q 636 821 929 821 q 269 488 336 821 m 82 484 q 667 977 180 977 q 1048 484 1147 977 q 471 -7 950 -7 q 82 484 -16 -7 m 374 578 l 791 578 l 760 422 l 343 422 l 374 578 z "},"Ι":{"ha":383,"x_min":5,"x_max":379,"o":"m 379 970 l 185 0 l 5 0 l 199 970 l 379 970 z "},"Κ":{"ha":983,"x_min":5,"x_max":1034,"o":"m 379 970 l 185 0 l 5 0 l 199 970 l 379 970 m 1034 970 l 496 499 l 890 0 l 655 0 l 330 453 l 353 570 l 808 970 l 1034 970 z "},"Λ":{"ha":1059,"x_min":-79,"x_max":946,"o":"m 588 785 l 112 0 l -79 0 l 526 970 l 720 970 l 946 0 l 760 0 l 588 785 z "},"Μ":{"ha":1221,"x_min":5,"x_max":1217,"o":"m 5 0 l 199 970 l 386 970 l 568 234 l 1037 970 l 1217 970 l 1023 0 l 857 0 l 991 675 l 593 0 l 440 0 l 307 675 l 172 0 l 5 0 z "},"Ν":{"ha":1068,"x_min":5,"x_max":1064,"o":"m 5 0 l 199 970 l 379 970 l 753 277 l 891 970 l 1064 970 l 870 0 l 690 0 l 320 708 l 178 0 l 5 0 z "},"Ξ":{"ha":811,"x_min":-28,"x_max":841,"o":"m 4 163 l 680 163 l 647 0 l -28 0 l 4 163 m 165 970 l 841 970 l 808 807 l 133 807 l 165 970 m 128 578 l 722 578 l 690 416 l 96 416 l 128 578 z "},"Ο":{"ha":1102,"x_min":-8,"x_max":1133,"o":"m 256 488 q 488 149 188 149 q 849 488 781 149 q 623 821 916 821 q 256 488 322 821 m 68 484 q 654 977 167 977 q 1035 484 1133 977 q 457 -7 937 -7 q 68 484 -8 -7 z "},"Π":{"ha":1061,"x_min":5,"x_max":1057,"o":"m 5 0 l 199 970 l 1057 970 l 863 0 l 684 0 l 846 814 l 348 814 l 185 0 l 5 0 z "},"Ρ":{"ha":850,"x_min":5,"x_max":930,"o":"m 5 0 l 199 970 l 633 970 q 876 696 930 970 q 398 338 817 400 l 404 498 q 687 691 657 542 q 590 812 711 812 l 347 812 l 185 0 l 5 0 z "},"Σ":{"ha":814,"x_min":-28,"x_max":844,"o":"m 165 970 l 844 970 l 812 814 l 331 814 l 562 509 l 213 156 l 681 156 l 650 0 l -28 0 l 3 156 l 361 515 l 134 814 l 165 970 z "},"Τ":{"ha":736,"x_min":66,"x_max":833,"o":"m 833 970 l 802 814 l 524 814 l 361 0 l 182 0 l 345 814 l 66 814 l 98 970 l 833 970 z "},"Υ":{"ha":882,"x_min":115,"x_max":1023,"o":"m 115 970 l 301 970 l 480 503 l 830 970 l 1023 970 l 541 339 l 473 0 l 293 0 l 361 339 l 115 970 z "},"Φ":{"ha":1169,"x_min":-8,"x_max":1179,"o":"m 414 77 q 68 484 -8 102 q 577 893 145 868 l 593 970 l 772 970 l 757 894 q 1102 484 1179 871 q 593 76 1025 98 l 578 0 l 399 0 l 414 77 m 446 233 l 546 736 q 255 488 300 712 q 446 233 209 258 m 725 737 l 625 233 q 917 488 870 256 q 725 737 962 715 z "},"Χ":{"ha":1019,"x_min":-79,"x_max":1105,"o":"m 399 485 l 115 970 l 335 970 l 532 609 l 871 970 l 1105 970 l 627 485 l 911 0 l 690 0 l 493 361 l 155 0 l -79 0 l 399 485 z "},"Ψ":{"ha":1119,"x_min":31,"x_max":1149,"o":"m 458 420 l 568 970 l 747 970 l 637 420 q 909 670 866 454 l 969 970 l 1149 970 l 1089 670 q 606 262 1015 297 l 553 0 l 374 0 l 427 262 q 106 670 31 297 l 165 970 l 345 970 l 286 670 q 458 420 242 454 z "},"Ϊ":{"ha":383,"x_min":5,"x_max":525,"o":"m 379 970 l 185 0 l 5 0 l 199 970 l 379 970 m 525 1227 l 499 1099 l 353 1099 l 379 1227 l 525 1227 m 294 1227 l 269 1099 l 123 1099 l 149 1227 l 294 1227 z "},"Ϋ":{"ha":882,"x_min":115,"x_max":1023,"o":"m 115 970 l 301 970 l 480 503 l 830 970 l 1023 970 l 541 339 l 473 0 l 293 0 l 361 339 l 115 970 m 798 1227 l 772 1099 l 627 1099 l 652 1227 l 798 1227 m 568 1227 l 542 1099 l 396 1099 l 422 1227 l 568 1227 z "},"ά":{"ha":935,"x_min":-54,"x_max":947,"o":"m 16 356 q 419 712 87 712 q 671 533 630 712 l 766 712 l 947 712 l 755 354 l 795 0 l 612 0 l 593 197 q 277 0 469 0 q 16 356 -54 0 m 196 359 q 305 142 153 142 q 555 359 437 142 q 391 570 523 570 q 196 359 238 570 m 562 970 l 778 970 l 581 794 l 429 794 l 562 970 z "},"έ":{"ha":621,"x_min":-47,"x_max":617,"o":"m 581 536 q 372 576 487 576 q 243 507 256 576 q 368 441 229 441 l 500 441 l 472 298 l 338 298 q 178 217 194 298 q 283 136 161 136 q 509 176 399 136 l 479 27 q 255 -7 370 -7 q -6 197 -47 -7 q 183 370 21 332 q 67 528 42 403 q 407 719 105 719 q 610 685 515 719 l 581 536 m 401 970 l 617 970 l 420 794 l 268 794 l 401 970 z "},"ή":{"ha":838,"x_min":-12,"x_max":799,"o":"m -12 0 l 131 712 l 290 712 l 262 472 q 593 712 395 712 q 753 481 799 712 l 605 -258 l 425 -258 l 573 483 q 493 567 590 567 q 237 341 365 567 l 168 0 l -12 0 m 509 970 l 726 970 l 528 794 l 376 794 l 509 970 z "},"ί":{"ha":383,"x_min":5,"x_max":498,"o":"m 328 712 l 185 0 l 5 0 l 148 712 l 328 712 m 282 970 l 498 970 l 301 794 l 149 794 l 282 970 z "},"ΰ":{"ha":821,"x_min":-24,"x_max":829,"o":"m 37 290 l 121 712 l 300 712 l 216 290 q 340 129 184 129 q 528 290 496 129 l 612 712 l 792 712 l 708 290 q 311 -14 647 -14 q 37 290 -24 -14 m 829 970 l 803 841 l 657 841 l 683 970 l 829 970 m 334 970 l 308 841 l 162 841 l 188 970 l 334 970 m 441 970 l 658 970 l 460 794 l 309 794 l 441 970 z "},"α":{"ha":935,"x_min":-54,"x_max":947,"o":"m 16 356 q 419 712 87 712 q 671 533 630 712 l 766 712 l 947 712 l 755 354 l 795 0 l 612 0 l 593 197 q 277 0 469 0 q 16 356 -54 0 m 196 359 q 305 142 153 142 q 555 359 437 142 q 391 570 523 570 q 196 359 238 570 z "},"β":{"ha":876,"x_min":-60,"x_max":877,"o":"m -60 -245 l 107 591 q 572 970 182 970 q 826 715 877 970 q 562 515 795 557 q 781 258 827 490 q 393 -1 728 -1 q 237 39 301 -1 l 266 182 q 423 141 330 141 q 601 258 577 141 q 385 441 637 440 l 410 562 q 656 715 633 598 q 532 827 678 827 q 286 589 334 827 l 119 -245 l -60 -245 z "},"γ":{"ha":739,"x_min":63,"x_max":768,"o":"m 63 712 l 250 712 l 309 185 l 582 712 l 768 712 l 357 0 l 306 -258 l 126 -258 l 178 0 l 63 712 z "},"δ":{"ha":814,"x_min":-57,"x_max":802,"o":"m 750 366 q 304 -7 675 -7 q 16 359 -57 -7 q 432 692 83 692 q 187 827 347 789 l 216 970 l 802 970 l 774 827 l 457 827 q 750 366 798 648 m 570 363 q 418 563 610 563 q 193 359 234 563 q 334 136 149 136 q 570 363 524 136 z "},"ε":{"ha":621,"x_min":-47,"x_max":610,"o":"m 581 536 q 372 576 487 576 q 243 507 256 576 q 368 441 229 441 l 500 441 l 472 298 l 338 298 q 178 217 194 298 q 283 136 161 136 q 509 176 399 136 l 479 27 q 255 -7 370 -7 q -6 197 -47 -7 q 183 370 21 332 q 67 528 42 403 q 407 719 105 719 q 610 685 515 719 l 581 536 z "},"ζ":{"ha":718,"x_min":-28,"x_max":798,"o":"m 303 970 l 798 970 l 770 827 q 205 286 262 574 q 317 142 176 142 l 399 142 q 591 -29 626 142 q 273 -271 559 -189 l 229 -151 q 416 -51 408 -90 q 374 0 426 0 l 292 0 q 28 283 -28 0 q 551 827 89 587 l 275 827 l 303 970 z "},"η":{"ha":838,"x_min":-12,"x_max":799,"o":"m -12 0 l 131 712 l 290 712 l 262 472 q 593 712 395 712 q 753 481 799 712 l 605 -258 l 425 -258 l 573 483 q 493 567 590 567 q 237 341 365 567 l 168 0 l -12 0 z "},"θ":{"ha":844,"x_min":-43,"x_max":889,"o":"m 233 434 q 357 136 186 136 q 593 434 520 136 l 233 434 m 619 576 q 496 834 650 834 q 263 576 337 834 l 619 576 m 55 484 q 525 977 153 977 q 791 484 889 977 q 328 -7 692 -7 q 55 484 -43 -7 z "},"ι":{"ha":383,"x_min":5,"x_max":328,"o":"m 328 712 l 185 0 l 5 0 l 148 712 l 328 712 z "},"κ":{"ha":851,"x_min":-12,"x_max":850,"o":"m 850 712 l 487 389 l 724 0 l 503 0 l 319 345 l 334 420 l 644 712 l 850 712 m 311 712 l 168 0 l -12 0 l 131 712 l 311 712 z "},"λ":{"ha":733,"x_min":-96,"x_max":637,"o":"m 319 716 q 180 886 289 834 l 292 1009 q 488 733 448 927 l 637 0 l 443 0 l 363 513 l 87 0 l -96 0 l 319 716 z "},"ν":{"ha":732,"x_min":46,"x_max":779,"o":"m 46 712 l 236 712 l 309 214 l 589 712 l 779 712 l 347 0 l 176 0 l 46 712 z "},"ξ":{"ha":711,"x_min":-28,"x_max":722,"o":"m 515 970 l 722 970 l 693 827 l 488 827 q 359 736 378 827 q 452 646 341 646 l 650 646 l 621 503 l 430 503 q 208 299 248 503 q 297 142 176 142 l 393 142 q 587 -50 626 142 q 273 -271 559 -189 l 222 -151 q 416 -51 408 -90 q 368 0 426 0 l 272 0 q 31 296 -28 0 q 269 575 73 508 q 184 761 155 612 q 515 970 227 970 z "},"ο":{"ha":814,"x_min":-54,"x_max":819,"o":"m 196 359 q 339 142 153 142 q 569 359 526 142 q 425 570 611 570 q 196 359 238 570 m 16 356 q 453 712 87 712 q 748 356 819 712 q 311 1 677 1 q 16 356 -54 1 z "},"ρ":{"ha":812,"x_min":-94,"x_max":817,"o":"m 176 193 q 319 149 221 149 q 572 373 527 149 q 424 567 610 567 q 212 373 251 567 l 176 193 m 33 373 q 454 712 100 712 q 749 373 817 712 q 290 0 675 0 q 146 41 197 0 l 86 -258 l -94 -258 l 33 373 z "},"ς":{"ha":670,"x_min":-26,"x_max":659,"o":"m 631 536 q 444 570 534 570 q 197 380 235 570 q 271 227 173 263 l 359 196 q 543 -37 575 125 q 173 -258 498 -258 l 201 -115 q 363 -40 349 -115 q 311 41 375 18 l 197 83 q 20 378 -26 150 q 473 712 87 712 q 659 678 563 712 l 631 536 z "},"σ":{"ha":859,"x_min":-54,"x_max":905,"o":"m 196 359 q 339 142 153 142 q 569 359 526 142 q 431 570 611 570 q 196 359 238 570 m 16 356 q 460 712 87 712 l 905 712 l 877 570 l 700 570 q 748 356 777 503 q 311 1 677 1 q 16 356 -54 1 z "},"τ":{"ha":559,"x_min":18,"x_max":571,"o":"m 46 712 l 571 712 l 543 570 l 356 570 l 292 251 q 400 142 271 142 q 423 142 411 142 l 395 0 q 334 -3 363 -3 q 113 251 62 -3 l 176 570 l 18 570 l 46 712 z "},"υ":{"ha":821,"x_min":-24,"x_max":792,"o":"m 37 290 l 121 712 l 300 712 l 216 290 q 340 129 184 129 q 528 290 496 129 l 612 712 l 792 712 l 708 290 q 311 -14 647 -14 q 37 290 -24 -14 z "},"φ":{"ha":1075,"x_min":-56,"x_max":1080,"o":"m 209 712 l 402 712 q 199 373 236 559 q 370 129 153 142 l 433 444 q 781 712 487 712 q 1013 373 1080 712 q 522 -14 938 0 l 473 -258 l 293 -258 l 342 -14 q 19 373 -56 0 q 209 712 56 559 m 550 129 q 833 373 787 142 q 755 570 872 570 q 613 444 638 570 l 550 129 z "},"χ":{"ha":800,"x_min":-131,"x_max":823,"o":"m 253 227 l 63 712 l 256 712 l 379 377 l 636 712 l 823 712 l 444 233 l 635 -258 l 442 -258 l 317 83 l 56 -258 l -131 -258 l 253 227 z "},"ψ":{"ha":1105,"x_min":-24,"x_max":1084,"o":"m 393 135 l 509 712 l 689 712 l 574 135 q 835 365 795 167 l 904 712 l 1084 712 l 1015 365 q 545 -10 946 24 l 495 -258 l 315 -258 l 364 -10 q 45 365 -24 24 l 114 712 l 294 712 l 224 365 q 393 135 184 167 z "},"ω":{"ha":1075,"x_min":-45,"x_max":1040,"o":"m 185 712 l 365 712 q 209 373 246 559 q 257 156 165 156 q 463 559 382 156 l 643 559 q 688 156 562 156 q 823 373 779 156 q 802 712 860 559 l 982 712 q 1002 373 1040 559 q 656 0 928 0 q 479 196 497 0 q 226 0 385 0 q 29 373 -45 0 q 185 712 66 559 z "},"ϊ":{"ha":383,"x_min":5,"x_max":477,"o":"m 328 712 l 185 0 l 5 0 l 148 712 l 328 712 m 477 970 l 452 841 l 306 841 l 332 970 l 477 970 m 247 970 l 221 841 l 75 841 l 101 970 l 247 970 z "},"ϋ":{"ha":821,"x_min":-24,"x_max":792,"o":"m 37 290 l 121 712 l 300 712 l 216 290 q 340 129 184 129 q 528 290 496 129 l 612 712 l 792 712 l 708 290 q 311 -14 647 -14 q 37 290 -24 -14 m 696 970 l 671 841 l 525 841 l 551 970 l 696 970 m 466 970 l 440 841 l 294 841 l 320 970 l 466 970 z "},"ό":{"ha":814,"x_min":-54,"x_max":819,"o":"m 196 359 q 339 142 153 142 q 569 359 526 142 q 425 570 611 570 q 196 359 238 570 m 16 356 q 453 712 87 712 q 748 356 819 712 q 311 1 677 1 q 16 356 -54 1 m 498 970 l 714 970 l 517 794 l 365 794 l 498 970 z "},"ύ":{"ha":821,"x_min":-24,"x_max":792,"o":"m 37 290 l 121 712 l 300 712 l 216 290 q 340 129 184 129 q 528 290 496 129 l 612 712 l 792 712 l 708 290 q 311 -14 647 -14 q 37 290 -24 -14 m 501 970 l 718 970 l 520 794 l 368 794 l 501 970 z "},"ώ":{"ha":1075,"x_min":-45,"x_max":1040,"o":"m 185 712 l 365 712 q 209 373 246 559 q 257 156 165 156 q 463 559 382 156 l 643 559 q 688 156 562 156 q 823 373 779 156 q 802 712 860 559 l 982 712 q 1002 373 1040 559 q 656 0 928 0 q 479 196 497 0 q 226 0 385 0 q 29 373 -45 0 q 185 712 66 559 m 628 970 l 844 970 l 647 794 l 495 794 l 628 970 z "},"":{"ha":1185,"x_min":-136,"x_max":1157,"o":"m 555 712 l 562 747 q 937 1019 616 1019 q 1157 971 1051 1019 l 1128 829 q 921 876 1034 876 q 743 752 768 876 l 735 712 l 1146 712 l 1004 0 l 824 0 l 938 570 l 707 570 l 604 54 q 410 -297 560 -161 l 288 -199 q 424 54 391 -107 l 527 570 l 282 570 l 179 54 q -15 -297 136 -161 l -136 -199 q -1 54 -33 -107 l 138 747 q 448 1005 189 1005 q 559 985 509 1005 l 530 842 q 446 863 491 863 q 318 752 340 863 l 311 712 l 555 712 z "},"":{"ha":1205,"x_min":-136,"x_max":1218,"o":"m 179 54 q -15 -297 136 -161 l -136 -199 q -1 54 -33 -107 l 138 747 q 448 1005 189 1005 q 559 985 509 1005 l 530 842 q 446 863 491 863 q 318 752 340 863 l 311 712 l 555 712 l 562 745 q 970 1017 616 1017 q 1218 970 1105 1017 l 1023 -1 l 844 -1 l 1017 863 q 928 875 985 875 q 743 751 768 875 l 734 711 l 880 711 l 852 568 l 706 568 l 604 54 q 410 -297 560 -161 l 288 -199 q 424 54 391 -107 l 527 570 l 282 570 l 179 54 z "},"":{"ha":927,"x_min":-136,"x_max":1087,"o":"m 179 54 q -15 -297 136 -161 l -136 -199 q -1 54 -33 -107 l 138 747 q 448 1005 189 1005 q 559 985 509 1005 l 530 842 q 446 863 491 863 q 318 752 340 863 l 311 712 l 555 712 q 934 1005 617 1005 q 1087 978 1021 1005 l 1059 836 q 918 863 997 863 q 735 712 765 863 l 949 712 l 920 570 l 707 570 l 604 54 q 410 -297 560 -161 l 288 -199 q 424 54 391 -107 l 527 570 l 282 570 l 179 54 z "},"":{"ha":760,"x_min":-136,"x_max":732,"o":"m 590 54 q 396 -297 547 -161 l 275 -199 q 410 54 378 -107 l 513 570 l 282 570 l 179 54 q -15 -297 136 -161 l -136 -199 q -1 54 -33 -107 l 138 747 q 512 1019 192 1019 q 732 971 627 1019 l 704 829 q 496 876 609 876 q 318 752 343 876 l 311 712 l 722 712 l 590 54 z "},"":{"ha":1185,"x_min":-136,"x_max":1157,"o":"m 1015 54 q 821 -297 971 -161 l 699 -199 q 835 54 802 -107 l 938 570 l 707 570 l 604 54 q 410 -297 560 -161 l 288 -199 q 424 54 391 -107 l 528 576 l 283 576 l 179 54 q -15 -297 136 -161 l -136 -199 q -1 54 -33 -107 l 139 753 q 450 1012 191 1012 q 560 991 510 1012 l 532 849 q 448 869 492 869 q 319 759 342 869 l 312 719 l 557 719 l 562 747 q 937 1019 616 1019 q 1157 971 1051 1019 l 1128 829 q 921 876 1034 876 q 743 752 768 876 l 735 712 l 1146 712 l 1015 54 z "},"":{"ha":1230,"x_min":-136,"x_max":1225,"o":"m 708 543 q 989 712 823 712 q 1160 384 1225 712 q 735 0 1083 0 q 425 29 589 0 l 592 864 q 503 876 561 876 q 318 752 343 876 l 311 712 l 456 712 l 428 570 l 282 570 l 179 54 q -15 -297 136 -161 l -136 -199 q -1 54 -33 -107 l 138 747 q 546 1019 192 1019 q 793 971 681 1019 l 708 543 m 677 391 l 632 165 q 771 145 690 145 q 981 382 934 145 q 898 563 1018 563 q 677 391 787 563 z "},"":{"ha":1655,"x_min":-136,"x_max":1650,"o":"m 179 54 q -15 -297 136 -161 l -136 -199 q -1 54 -33 -107 l 138 747 q 448 1005 189 1005 q 559 985 509 1005 l 530 842 q 446 863 491 863 q 318 752 340 863 l 311 712 l 555 712 l 562 745 q 970 1017 616 1017 q 1218 970 1105 1017 l 1133 543 q 1414 712 1247 712 q 1584 384 1650 712 q 1160 0 1508 0 q 850 29 1013 0 l 1017 863 q 928 875 985 875 q 743 751 768 875 l 734 711 l 880 711 l 852 568 l 706 568 l 604 54 q 410 -297 560 -161 l 288 -199 q 424 54 391 -107 l 527 570 l 282 570 l 179 54 m 1102 391 l 1057 165 q 1196 145 1114 145 q 1406 382 1358 145 q 1322 563 1442 563 q 1102 391 1211 563 z "},"":{"ha":1269,"x_min":-136,"x_max":1230,"o":"m 600 0 l 420 0 l 592 864 q 503 876 561 876 q 318 752 343 876 l 311 712 l 456 712 l 428 570 l 282 570 l 179 54 q -15 -297 136 -161 l -136 -199 q -1 54 -33 -107 l 138 747 q 546 1019 192 1019 q 793 971 681 1019 l 696 486 q 1025 712 826 712 q 1183 481 1230 712 l 1088 0 l 908 0 l 1004 483 q 924 567 1021 567 q 667 341 796 567 l 600 0 z "},"":{"ha":1693,"x_min":-136,"x_max":1655,"o":"m 179 54 q -15 -297 136 -161 l -136 -199 q -1 54 -33 -107 l 138 747 q 448 1005 189 1005 q 559 985 509 1005 l 530 842 q 446 863 491 863 q 318 752 340 863 l 311 712 l 555 712 l 562 745 q 970 1017 616 1017 q 1218 970 1105 1017 l 1121 486 q 1449 712 1251 712 q 1608 481 1655 712 l 1512 0 l 1333 0 l 1429 483 q 1349 567 1446 567 q 1092 341 1221 567 l 1024 0 l 844 0 l 1017 863 q 928 875 985 875 q 743 751 768 875 l 734 711 l 880 711 l 852 568 l 706 568 l 604 54 q 410 -297 560 -161 l 288 -199 q 424 54 391 -107 l 527 570 l 282 570 l 179 54 z "},"":{"ha":1253,"x_min":-136,"x_max":1247,"o":"m 600 0 l 420 0 l 592 864 q 503 876 561 876 q 318 752 343 876 l 311 712 l 456 712 l 428 570 l 282 570 l 179 54 q -15 -297 136 -161 l -136 -199 q -1 54 -33 -107 l 138 747 q 546 1019 192 1019 q 793 971 681 1019 l 703 521 q 1029 712 852 712 q 1208 520 1247 712 q 967 289 1181 385 l 1129 0 l 923 0 l 785 269 l 796 325 q 1031 500 1007 379 q 951 570 1046 570 q 673 370 827 570 l 600 0 z "},"":{"ha":1677,"x_min":-136,"x_max":1672,"o":"m 179 54 q -15 -297 136 -161 l -136 -199 q -1 54 -33 -107 l 138 747 q 448 1005 189 1005 q 559 985 509 1005 l 530 842 q 446 863 491 863 q 318 752 340 863 l 311 712 l 555 712 l 562 745 q 970 1017 616 1017 q 1218 970 1105 1017 l 1128 521 q 1453 712 1277 712 q 1633 520 1672 712 q 1392 289 1606 385 l 1554 0 l 1348 0 l 1210 269 l 1221 325 q 1456 500 1432 379 q 1375 570 1470 570 q 1098 370 1251 570 l 1024 0 l 844 0 l 1017 863 q 928 875 985 875 q 743 751 768 875 l 734 711 l 880 711 l 852 568 l 706 568 l 604 54 q 410 -297 560 -161 l 288 -199 q 424 54 391 -107 l 527 570 l 282 570 l 179 54 z "},"":{"ha":865,"x_min":-33,"x_max":848,"o":"m 227 359 q 367 136 182 136 q 589 359 545 136 q 455 576 633 576 q 227 359 270 576 m 39 355 q 484 719 112 719 q 775 355 848 719 q 338 -7 703 -7 q 39 355 -33 -7 z "},"":{"ha":579,"x_min":-45,"x_max":508,"o":"m 159 142 l 239 543 l 63 543 l 85 651 l 454 719 l 339 142 l 508 142 l 479 0 l -45 0 l -17 142 l 159 142 z "},"":{"ha":746,"x_min":-39,"x_max":709,"o":"m -39 0 l -10 142 q 484 495 451 330 q 365 576 500 576 q 75 502 222 576 l 105 651 q 393 719 251 719 q 664 495 709 719 q 236 142 625 298 l 627 142 l 599 0 l -39 0 z "},"":{"ha":753,"x_min":-65,"x_max":721,"o":"m 99 671 q 365 712 243 712 q 669 454 721 712 q 505 268 644 328 q 595 81 622 217 q 184 -190 541 -190 q -65 -149 62 -190 l -35 0 q 213 -47 91 -47 q 415 81 389 -47 q 308 197 438 197 l 106 197 l 134 339 l 334 339 q 490 454 467 339 q 336 570 513 570 q 69 522 214 570 l 99 671 z "},"":{"ha":790,"x_min":-52,"x_max":689,"o":"m 528 -190 l 349 -190 l 391 20 l -52 20 l -23 162 l 429 711 l 629 711 l 162 162 l 419 162 l 476 446 l 656 446 l 599 162 l 689 111 l 671 20 l 570 20 l 528 -190 z "},"":{"ha":777,"x_min":-22,"x_max":724,"o":"m 165 712 l 724 712 l 695 570 l 290 570 l 241 365 q 349 380 296 380 q 646 102 702 380 q 193 -197 587 -197 q -22 -156 71 -197 l 7 -7 q 229 -54 100 -54 q 465 95 435 -54 q 307 237 494 237 q 36 203 175 237 l 165 712 z "},"":{"ha":858,"x_min":-23,"x_max":819,"o":"m 49 353 q 625 931 120 709 l 669 798 q 315 568 456 719 q 484 610 393 610 q 760 312 819 610 q 328 -7 696 -7 q 49 353 -23 -7 m 221 350 q 369 136 178 136 q 583 312 547 136 q 436 468 614 468 q 257 435 338 468 q 221 350 231 401 z "},"":{"ha":719,"x_min":-89,"x_max":718,"o":"m 66 712 l 718 712 l 689 570 l 109 -190 l -89 -190 l 505 570 l 38 570 l 66 712 z "},"":{"ha":848,"x_min":-26,"x_max":836,"o":"m 27 260 q 241 478 58 418 q 139 684 109 536 q 510 911 184 911 q 790 684 836 911 q 602 478 760 536 q 732 260 764 418 q 326 -7 679 -7 q 27 260 -26 -7 m 439 543 q 606 663 582 543 q 475 766 627 766 q 315 663 335 766 q 439 543 290 543 m 358 136 q 555 270 528 136 q 402 400 581 400 q 209 270 235 400 q 358 136 182 136 z "},"":{"ha":861,"x_min":-12,"x_max":830,"o":"m 758 357 q 182 -221 687 1 l 138 -87 q 492 142 351 -9 q 323 100 414 100 q 47 398 -12 100 q 479 717 111 717 q 758 357 830 717 m 586 360 q 438 574 629 574 q 224 398 260 574 q 371 242 193 242 q 550 275 469 242 q 586 360 576 309 z "},"":{"ha":1052,"x_min":5,"x_max":1051,"o":"m 5 0 l 130 624 q 673 983 202 983 q 1051 922 859 983 l 1021 773 l 724 561 q 981 298 1033 557 q 546 -1 922 -1 q 344 46 440 -1 l 375 202 q 578 155 472 155 q 795 298 766 155 q 638 415 818 414 l 485 415 l 512 549 l 852 800 q 642 827 760 827 q 310 624 351 827 l 185 0 l 5 0 z "}}}
